<?xml version="1.0" standalone="no"?>
<!DOCTYPE svg PUBLIC "-//W3C//DTD SVG 1.1//EN" "http://www.w3.org/Graphics/SVG/1.1/DTD/svg11.dtd" >
<!--
2013-9-30: Created.
-->
<svg>
<metadata>
Created by iconfont
</metadata>
<defs>

<font id="iconfont" horiz-adv-x="1024" >
  <font-face
    font-family="iconfont"
    font-weight="500"
    font-stretch="normal"
    units-per-em="1024"
    ascent="896"
    descent="-128"
  />
    <missing-glyph />
    
    <glyph glyph-name="duanxin" unicode="&#58912;" d="M848.173994 677.961214 175.822936 677.961214c-72.001871 0-107.031689-35.609009-107.031689-106.84647l0-427.394067c0-71.237461 32.863479-104.906282 103.071494-104.906282L274.935258 38.814396l-12.68388-108.789729c0-13.179161 7.274684-25.209148 18.841114-31.333636 5.275143-2.861164 11.053754-4.279467 16.833387-4.279467 6.92062 0 13.842263 2.001587 19.765159 5.984295l204.615191 138.418536 329.828984 0c71.358211 0 103.071494 33.669844 103.071494 104.906282l0 427.394067C955.206706 642.352205 919.532205 677.961214 848.173994 677.961214zM306.072419 306.695492c-28.371164 0-51.430346 23.137976-51.430346 51.507094s23.059182 51.603285 51.430346 51.603285 51.430346-23.136953 51.430346-51.603285C357.503788 329.736255 334.347392 306.695492 306.072419 306.695492zM511.885901 306.695492c-28.517497 0-51.694359 23.137976-51.694359 51.507094s23.176862 51.603285 51.694359 51.603285c28.515451 0 51.692313-23.136953 51.692313-51.603285C563.578214 329.736255 540.305161 306.695492 511.885901 306.695492zM718.012516 306.695492c-28.517497 0-51.607378 23.137976-51.607378 51.507094s23.089881 51.603285 51.607378 51.603285c28.515451 0 51.692313-23.136953 51.692313-51.603285C769.704828 329.736255 746.528989 306.695492 718.012516 306.695492z"  horiz-adv-x="1024" />

    
    <glyph glyph-name="unie645" unicode="&#59129;" d="M890.176 556.992l-59.872 0c49.984-67.488 79.84-150.72 79.84-241.12 0-224.384-181.952-406.304-406.304-406.304s-406.304 181.92-406.304 406.304c0 90.4 29.888 173.632 79.84 241.12l-59.872 0c-43.776-70.016-69.504-152.48-69.504-241.12 0-251.744 204.128-455.84 455.84-455.84s455.84 204.128 455.84 455.84c0 88.672-25.696 171.136-69.504 241.12zM860.608 617.536c0 0-124.768 143.744-309.664 165.44 8.96 10.688 14.56 24.32 14.56 39.36 0 34.08-27.552 61.664-61.664 61.664s-61.664-27.584-61.664-61.664c0-15.104 5.664-28.736 14.656-39.456-93.312-11.456-197.152-57.856-305.312-165.344l709.088 0zM705.92 663.808l-399.68 0c200.384 170.656 399.68 0 399.68 0zM687.712 373.6c15.52 53.92-15.616 110.208-69.568 125.696l-212.672 61.184c-53.92 15.52-110.176-15.616-125.696-69.536s15.616-110.208 69.536-125.696l212.704-61.184c53.952-15.52 110.208 15.616 125.696 69.536zM464.48 349.344l-103.616 29.792c-47.68 13.728-75.616 61.952-62.464 107.776 13.216 45.824 62.496 71.84 110.208 58.112l103.648-29.792-47.744-165.888zM501.536 13.792l165.664 88.864c42.016 22.528 54.528 80.864 28 130.304s-82.016 71.232-124 48.704l-165.664-88.864c-41.984-22.528-54.528-80.864-28-130.304s82.016-71.232 124.032-48.704zM499.136 227.104l73.216 39.296c37.12 19.936 85.472 2.048 108.032-39.968s10.688-92.192-26.464-112.128l-80.672-43.296-81.6 152.096 7.488 4.032z"  horiz-adv-x="1024" />

    
    <glyph glyph-name="yaopingmp" unicode="&#58906;" d="M737.039359 624.815671l-0.00614 0 0 60.921511c0 34.947953-45.87584 33.980929-45.87584 33.980929L691.157379 810.805666c0 0 1.977028 22.772656-18.48091 22.772656L345.085456 833.578322c-12.165064 0-18.274202-10.653641-18.274202-22.772656l0-91.087555c0 0-44.800345 8.772804-45.639456-33.980929l0-60.921511c-42.791595-21.570271-102.377692-43.536562-102.377692-132.497687l0-432.980295c0-103.20657 83.620489-125.245516 187.743942-125.245516L651.952472-65.907826c103.414301 0 187.222055 22.039969 187.222055 125.245516L839.174528 492.317984C839.174528 581.788715 780.062222 602.736816 737.039359 624.815671zM360.968192 799.419338l296.03225 0 0-79.701227-296.03225 0L360.968192 799.419338zM805.016567 59.337689c0-41.491996-46.635133-89.859587-159.40143-91.087555L372.35452-31.749866c-92.242867 0-158.248164 30.361495-159.402453 91.087555l0 432.664094c0 101.854782 102.472859 73.233931 102.472859 113.858164l0 79.70225 387.118781 0 0-79.70225c0-34.968419 102.472859-28.225855 102.472859-113.858164L805.016567 59.337689zM531.756973 457.842799l-34.157961 0 0-170.787758L326.810231 287.055041l0-34.156938 170.788781 0L497.599012 82.110345l34.157961 0L531.756973 252.898103l170.786735 0 0 34.156938L531.756973 287.055041 531.756973 457.842799z"  horiz-adv-x="1024" />

    
    <glyph glyph-name="yaopinjsp" unicode="&#58907;" d="M735.314065 623.135402c42.630936-21.87931 101.204983-42.637076 101.204983-131.293255l0-429.040566c0-102.267175-83.044368-124.104529-185.517227-124.104529L368.184547-61.302949c-103.175871 0-186.03502 21.838378-186.03502 124.104529L182.149527 491.842147c0 88.151689 59.043744 109.917412 101.44546 131.293255l0 60.366879c0.831948 42.363853 45.223994 33.67189 45.223994 33.67189L328.818981 807.431825c0 12.008498 6.053879 22.564925 18.108426 22.564925l0.483001 0 324.128145 0c20.270672 0 18.312064-22.564925 18.312064-22.564925l0-90.257653c0 0 45.458331 0.956791 45.458331-33.67189l0-0.773619 0-59.59326L735.314065 623.135402 735.314065 623.135402zM706.875363 491.4625c11.781324 0 16.821107-10.708899 16.821107-22.49841l0-33.846876 0-304.620859c0-12.015661-10.783601-22.564925-22.564925-22.564925l0 0L317.536007 107.93143c-12.053524 0-22.564925 10.549264-22.564925 22.564925l0 0L294.971082 468.96409c0 11.788487 10.510378 22.563902 22.564925 22.563902L706.875363 491.4625zM689.849594 457.68214 328.817957 457.68214l0-315.904857 361.031637 0L689.849594 457.68214 689.849594 457.68214 689.849594 457.68214zM656.002718 717.174172 656.002718 796.149874 362.664833 796.149874l0-78.975702L656.002718 717.174172zM701.131545 604.351594l0 78.975702L317.536007 683.327296l0-78.975702c0-40.254819-101.540627-11.894911-101.540627-112.823602l0-428.726411c1.144056-60.171428 66.548672-90.257653 157.951405-90.257653l270.773983 0c111.73992 1.218758 157.950382 49.14428 157.950382 90.257653L802.671149 491.527992C802.672172 576.382589 701.131545 569.700399 701.131545 604.351594z"  horiz-adv-x="1024" />

    
    <glyph glyph-name="gmpzhengshu" unicode="&#58916;" d="M145.185792 230.8352l450.282496 0 0-50.985984L145.185792 179.849216 145.185792 230.8352 145.185792 230.8352 145.185792 230.8352zM145.185792 230.8352M675.526656 87.356416l-2.571264 2.548736L93.887488 89.905152c-23.056384 0-40.998912 17.85344-40.998912 40.79104l0 535.38816c0 22.9376 17.932288 43.336704 40.998912 43.336704l825.05728 0c23.066624 0 41.001984-17.84832 41.001984-40.800256l0-321.220608 2.56-2.54976c12.811264-7.650304 25.617408-17.850368 35.877888-30.587904l10.24512-12.7488L1008.62976 678.833152c0 43.339776-35.876864 79.026176-79.424512 79.026176L81.07008 757.859328c-43.552768 0-79.428608-35.6864-79.428608-79.026176l0-560.87552c0-43.3408 35.876864-79.0272 79.428608-79.0272l627.762176 0-7.68512 10.19904C690.896896 61.869056 683.211776 74.616832 675.526656 87.356416L675.526656 87.356416 675.526656 87.356416zM675.526656 87.356416M145.185792 332.199936l450.282496 0 0-50.989056L145.185792 281.21088 145.185792 332.199936 145.185792 332.199936 145.185792 332.199936zM145.185792 332.199936M854.8864 342.2976c-94.794752 0-169.109504-73.925632-169.109504-168.262656 0-91.779072 76.874752-168.265728 169.109504-168.265728 94.811136 0.01024 169.1136 73.94816 169.1136 168.278016C1024 268.371968 947.125248 342.2976 854.8864 342.2976L854.8864 342.2976 854.8864 342.2976zM852.3264 72.067072c-7.68512-7.648256-23.056384-7.648256-33.301504 0l-71.743488 71.37792c-7.68512 7.650304-7.68512 22.951936 0 30.589952 7.68512 7.650304 23.056384 7.650304 33.3056 0l56.368128-56.088576 110.181376 107.075584c7.68512 7.653376 23.056384 7.653376 33.301504 0 7.686144-7.650304 7.686144-22.948864 0-30.598144L852.3264 72.067072 852.3264 72.067072 852.3264 72.067072zM852.3264 72.067072M266.779648 469.942272l0 38.79936 100.220928 0 0-91.737088c-9.739264-9.424896-23.852032-17.726464-42.334208-24.897536-18.484224-7.172096-37.204992-10.760192-56.158208-10.760192-24.087552 0-45.083648 5.051392-62.99136 15.158272-17.907712 10.104832-31.36512 24.556544-40.3712 43.355136-9.007104 18.796544-13.508608 39.2448-13.508608 61.341696 0 23.980032 5.026816 45.29152 15.080448 63.93344 10.052608 18.639872 24.76544 32.934912 44.140544 42.884096 14.76608 7.643136 33.144832 11.467776 55.136256 11.467776 28.59008 0 50.920448-5.996544 66.997248-17.98656 16.073728-11.992064 26.41408-28.56448 31.024128-49.716224l-46.1824-8.640512c-3.247104 11.31008-9.347072 20.236288-18.300928 26.78272-8.953856 6.54336-20.133888 9.818112-33.538048 9.818112-20.318208 0-36.46976-6.44096-48.4608-19.321856-11.992064-12.88192-17.985536-31.993856-17.985536-57.336832 0-27.332608 6.07232-47.832064 18.22208-61.498368 12.146688-13.666304 28.063744-20.499456 47.753216-20.499456 9.739264 0 19.503104 1.90976 29.29664 5.733376 9.790464 3.821568 18.194432 8.456192 25.211904 13.902848l0 29.217792L266.779648 469.942272zM409.255936 385.271808l0 230.28736 69.587968 0 41.785344-157.084672 41.314304 157.084672 69.74464 0 0-230.28736-43.198464 0L588.489728 566.549504l-45.71136-181.277696-44.770304 0L452.4544 566.549504l0-181.277696L409.255936 385.271808zM677.870592 385.271808l0 230.28736 74.615808 0c28.274688 0 46.705664-1.153024 55.293952-3.456 13.195264-3.456 24.242176-10.971136 33.144832-22.541312 8.89856-11.573248 13.351936-26.523648 13.351936-44.848128 0-14.138368-2.567168-26.02496-7.698432-35.658752-5.131264-9.63584-11.650048-17.201152-19.556352-22.699008-7.909376-5.49888-15.94368-9.138176-24.113152-10.917888-11.102208-2.199552-27.175936-3.299328-48.224256-3.299328l-30.318592 0 0-86.868992L677.870592 385.26976zM724.368384 576.602112l0-65.347584 25.449472 0c18.32448 0 30.57664 1.2032 36.757504 3.612672 6.176768 2.407424 11.020288 6.177792 14.529536 11.31008 3.5072 5.13024 5.262336 11.099136 5.262336 17.907712 0 8.377344-2.460672 15.289344-7.38304 20.736-4.923392 5.443584-11.153408 8.848384-18.694144 10.210304-5.55008 1.045504-16.704512 1.570816-33.458176 1.570816L724.368384 576.602112z"  horiz-adv-x="1024" />

    
    <glyph glyph-name="hetong2" unicode="&#58992;" d="M300.575 569.005l196.662 0c11.637 0 21.068 9.433 21.068 21.07s-9.431 21.073-21.068 21.073l-196.662 0c-11.639 0-21.073-9.436-21.073-21.073s9.436-21.07 21.073-21.07zM279.502 379.365c0-11.637 9.433-21.073 21.073-21.073l421.423 0c11.632 0 21.068 9.436 21.068 21.073s-9.436 21.07-21.068 21.07l-421.423 0c-11.637 0.001-21.073-9.433-21.073-21.07zM686.877 849.952l-505.705 0c-31.032 0-56.189-25.156-56.189-56.189l0-828.795c0-31.031 25.156-56.189 56.189-56.189l674.273 0c31.031 0 56.189 25.159 56.189 56.189l0 646.179-224.757 238.805zM686.877 793.762l168.568-182.614-140.471 0c-15.522 0-28.097 12.577-28.097 28.092l0 154.522zM855.445-6.94c0-15.513-12.579-28.092-28.092-28.092l-618.086 0c-15.518 0-28.094 12.579-28.094 28.092l0 772.608c0 15.515 12.579 28.094 28.094 28.094l435.466 0 0-168.568c0-31.032 25.159-56.189 56.194-56.189l154.52 0 0-575.945-0.001 0zM721.998 175.681l-421.423 0c-11.639 0-21.073-9.436-21.073-21.073 0-11.642 9.433-21.073 21.073-21.073l421.423 0c11.632 0 21.068 9.431 21.068 21.073 0 11.637-9.436 21.073-21.068 21.073z"  horiz-adv-x="1024" />

    
    <glyph glyph-name="yidongyunkongzhitaiicon45" unicode="&#59210;" d="M155.826087 132.770186C104.944099 132.770186 66.782609 170.931677 66.782609 221.813665L66.782609 743.354037C66.782609 794.236025 104.944099 832.397516 155.826087 832.397516l521.540373 0C728.248447 832.397516 766.409938 794.236025 766.409938 743.354037l0-235.329193c0 0 44.521739-6.360248 63.602484-12.720497L830.012422 768.795031c0 69.962733-57.242236 127.204969-127.204969 127.204969L130.385093 896C60.42236 896 3.180124 838.757764 3.180124 768.795031l0-572.42236c0-69.962733 57.242236-127.204969 127.204969-127.204969l254.409938 0c-6.360248 19.080745-6.360248 63.602484-12.720497 63.602484L155.826087 132.770186zM429.31677 488.944099 429.31677 488.944099c19.080745 0 38.161491-6.360248 57.242236-6.360248C467.478261 488.944099 448.397516 488.944099 429.31677 488.944099zM486.559006 482.583851c0 0-6.360248 0-6.360248 0 63.602484 25.440994 108.124224 95.403727 89.043478 178.086957C556.521739 705.192547 512 743.354037 467.478261 756.074534 372.074534 781.515528 283.031056 711.552795 283.031056 616.149068c0-63.602484 38.161491-114.484472 95.403727-133.565217 0 0-6.360248 0-6.360248 0-108.124224-25.440994-184.447205-127.204969-178.086957-241.689441 0-6.360248 6.360248-19.080745 19.080745-19.080745l235.329193 0c0 0 25.440994 44.521739 31.801242 50.881988L238.509317 272.695652c12.720497 95.403727 95.403727 165.36646 190.807453 165.36646 50.881988 0 95.403727-19.080745 127.204969-50.881988C569.242236 399.900621 575.602484 406.26087 588.322981 412.621118l12.720497 6.360248C569.242236 450.782609 531.080745 469.863354 486.559006 482.583851zM333.913043 616.149068c0 50.881988 44.521739 95.403727 95.403727 95.403727s95.403727-44.521739 95.403727-95.403727c0-50.881988-44.521739-95.403727-95.403727-95.403727S333.913043 565.267081 333.913043 616.149068zM766.409938 190.012422c-31.801242 12.720497-69.962733 0-82.68323-31.801242-12.720497-31.801242 0-69.962733 31.801242-82.68323 6.360248 0 12.720497-6.360248 19.080745-6.360248 25.440994-6.360248 50.881988 6.360248 63.602484 31.801242 12.720497 25.440994 6.360248 50.881988-12.720497 69.962733C779.130435 177.291925 772.770186 183.652174 766.409938 190.012422zM938.136646 107.329193c19.080745 6.360248 38.161491 12.720497 50.881988 12.720497 0 12.720497 0 25.440994 0 44.521739 0 0 0 0 0 6.360248-12.720497 6.360248-31.801242 6.360248-50.881988 6.360248 0 12.720497-6.360248 25.440994-12.720497 31.801242 12.720497 12.720497 25.440994 25.440994 38.161491 38.161491-6.360248 12.720497-12.720497 25.440994-25.440994 38.161491-12.720497-6.360248-31.801242-12.720497-50.881988-19.080745-6.360248 6.360248-19.080745 19.080745-25.440994 25.440994 6.360248 19.080745 12.720497 38.161491 12.720497 50.881988-12.720497 6.360248-25.440994 12.720497-38.161491 19.080745 0 0-6.360248-6.360248-6.360248-6.360248-6.360248-12.720497-19.080745-19.080745-31.801242-31.801242-6.360248 0-6.360248 0-12.720497 0-6.360248 0-12.720497 6.360248-25.440994 6.360248-6.360248 19.080745-12.720497 38.161491-12.720497 50.881988-12.720497 0-25.440994 0-44.521739 0 0 0 0 0-6.360248 0 0-12.720497-6.360248-31.801242-6.360248-50.881988-12.720497 0-19.080745-6.360248-31.801242-12.720497 0 0 0 0 0 0-12.720497 12.720497-25.440994 25.440994-38.161491 38.161491C613.763975 349.018634 607.403727 342.658385 594.68323 336.298137 594.68323 336.298137 588.322981 329.937888 581.962733 329.937888c6.360248-12.720497 12.720497-31.801242 19.080745-50.881988C594.68323 272.695652 581.962733 259.975155 575.602484 253.614907L569.242236 253.614907C556.521739 259.975155 537.440994 259.975155 524.720497 266.335404c0-6.360248-6.360248-6.360248-6.360248-12.720497-6.360248-6.360248-12.720497-19.080745-12.720497-31.801242 6.360248-6.360248 12.720497-12.720497 19.080745-12.720497s12.720497-12.720497 25.440994-19.080745c-6.360248-12.720497-6.360248-25.440994-6.360248-38.161491-19.080745-6.360248-38.161491-12.720497-50.881988-12.720497 0-12.720497 0-25.440994 0-44.521739 0 0 0 0 0-6.360248 12.720497-6.360248 31.801242-6.360248 50.881988-6.360248 0-6.360248 6.360248-12.720497 6.360248-19.080745 0-6.360248 0-12.720497 6.360248-19.080745-6.360248-6.360248-19.080745-19.080745-25.440994-25.440994-6.360248-6.360248-6.360248-12.720497-12.720497-12.720497 6.360248-12.720497 12.720497-25.440994 25.440994-38.161491 12.720497 6.360248 31.801242 12.720497 50.881988 19.080745 6.360248-6.360248 19.080745-19.080745 25.440994-25.440994-6.360248-19.080745-12.720497-38.161491-12.720497-50.881988 12.720497-6.360248 25.440994-12.720497 38.161491-19.080745 12.720497 12.720497 19.080745 25.440994 31.801242 38.161491 12.720497-6.360248 25.440994-6.360248 38.161491-6.360248 6.360248-19.080745 12.720497-38.161491 12.720497-50.881988 12.720497 0 25.440994 0 44.521739 0 0 0 0 0 6.360248 0 6.360248 12.720497 6.360248 31.801242 6.360248 50.881988 12.720497 0 25.440994 6.360248 31.801242 12.720497 12.720497-12.720497 25.440994-25.440994 38.161491-38.161491 12.720497 6.360248 25.440994 12.720497 38.161491 25.440994-6.360248 12.720497-12.720497 31.801242-19.080745 50.881988 6.360248 6.360248 19.080745 19.080745 25.440994 25.440994 19.080745-6.360248 38.161491-12.720497 50.881988-12.720497 6.360248 12.720497 12.720497 25.440994 19.080745 38.161491-12.720497 12.720497-25.440994 19.080745-38.161491 31.801242C938.136646 81.888199 938.136646 94.608696 938.136646 107.329193zM760.049689-13.515528c-44.521739-6.360248-89.043478 12.720497-120.84472 38.161491-12.720497 12.720497-19.080745 25.440994-31.801242 38.161491-6.360248 12.720497-12.720497 25.440994-12.720497 44.521739-6.360248 31.801242 6.360248 69.962733 19.080745 95.403727 12.720497 25.440994 31.801242 38.161491 57.242236 50.881988 12.720497 6.360248 25.440994 12.720497 44.521739 12.720497 25.440994 0 44.521739 0 63.602484-6.360248 12.720497-6.360248 25.440994-12.720497 38.161491-19.080745 31.801242-25.440994 50.881988-57.242236 57.242236-95.403727C893.614907 69.167702 836.372671-0.795031 760.049689-13.515528z"  horiz-adv-x="1024" />

    
    <glyph glyph-name="webicon06" unicode="&#58993;" d="M864 512 512 720 160 512l352-208L864 512zM512 678.4l281.6-166.4L512 345.6 230.4 512 512 678.4zM510.016 201.6 233.536 352 157.088 352 510.016 160 862.912 352 786.464 352ZM510.016 73.6 233.536 224 157.088 224 510.016 32 862.912 224 786.464 224Z"  horiz-adv-x="1024" />

    
    <glyph glyph-name="procurement" unicode="&#59041;" d="M824.262-62.256h-625.388c-74.016 0-134.013 59.997-134.013 134.013v625.397c0 74.007 59.997 134.004 134.013 134.004h625.388c74.016 0 134.017-59.997 134.017-134.004v-625.398c0-74.015-60.002-134.012-134.017-134.012zM765.641 660.975c-119.298-8.143-290.915-13.437-514.851-15.876 3.256-14.661 6.106-30.135 8.55-46.417 207.652 4.070 378.859 9.363 513.631 15.881l-7.33 46.412zM266.671 544.938c27.276-33.392 55.776-71.053 85.5-112.986l41.531 29.313c-30.538 38.274-60.873 74.917-91 109.935l-36.032-26.261zM449.281 569.364c30.939-44.381 55.982-83.262 75.119-116.649l44.586 25.65c-16.291 25.654-42.755 63.924-79.398 114.822l-40.307-23.824zM607.461 456.99l34.812-31.756c43.157 47.637 84.892 94.864 125.199 141.692l-42.75 31.756c-41.942-54.155-81.029-101.381-117.262-141.692zM807.784 342.172v46.417l-272.391-0v53.744h-47.637v-53.744h-272.998v-46.417h234.214c-57.406-70.843-138.131-128.46-242.156-172.836 13.843-16.693 25.449-31.962 34.812-45.805 104.437 52.524 186.474 120.312 246.128 203.374v-250.403h47.637v251.318c59.242-89.578 142.304-154.414 249.179-194.519 9.774 16.291 21.781 33.592 36.036 51.912-107.697 28.5-190.147 80.819-247.347 156.96l234.523 0z"  horiz-adv-x="1024" />

    
    <glyph glyph-name="yonghu" unicode="&#58884;" d="M811.739-70.597c-0.048 0-0.095 0-0.143 0l-718.856 0c-10.326 0-18.697 8.371-18.697 18.697l0 22.468c-0.318 6.267-0.911 40.604 21.004 78.307 13.716 23.598 33.431 43.861 58.598 60.225 30.493 19.829 69.116 33.909 114.796 41.849 0.233 0.04 0.467 0.076 0.701 0.107 0.347 0.047 35.499 4.859 71.209 14.273 61.895 16.318 67.308 30.743 67.346 30.884 0.364 1.431 0.894 2.804 1.573 4.095 0.508 2.699 1.764 12.859-0.638 40.08-6.101 69.136-42.12 109.995-71.061 142.826-9.128 10.355-17.749 20.133-24.387 29.723-28.64 41.372-31.297 88.416-31.396 90.399-0.015 0.311-0.023 0.622-0.023 0.933 0 18.78 9.363 27.418 17.624 35.041l0.434 0.401c0.271 0.251 0.442 0.437 0.542 0.557 0.093 1.341-0.567 4.743-1.013 7.041-0.17 0.874-0.34 1.751-0.501 2.633-7.18 38.982-7.671 99.192-1.176 137.837 2.41 50.813 46.225 89.711 48.105 91.356 0.072 0.062 0.143 0.124 0.215 0.185 6.29 5.339 12.672 11.169 16.728 17.637 0.487 0.776 0.828 1.377 1.066 1.837-0.305 0.787-0.742 1.794-1.095 2.608-2.436 5.619-6.118 14.109-4.024 25.024 1.264 6.589 6.078 18.362 24.118 23.174 7.261 1.937 15.022 2.333 20.689 2.622l1.123 0.058c22.39 1.179 46.273 2.177 70.435 0.324 174.73-13.396 234.92-78.686 237.396-81.459 0.14-0.156 0.276-0.314 0.409-0.475 13.987-16.757 24.347-37.635 30.796-62.055 2.015-7.62 3.309-14.016 4.063-20.072 6.103-35.465 5.085-71.904 3.782-96.269-0.733-13.675-2.257-28.03-4.8-45.176-0.692-4.656 0.069-5.565 0.355-5.906 0.758-0.907 1.686-1.892 2.668-2.935 3.863-4.099 9.152-9.713 11.964-18.721 1.41-4.503 2.069-9.36 2.069-15.268 0-0.311-0.008-0.622-0.023-0.933-0.099-1.982-2.756-49.026-31.395-90.398-6.639-9.59-15.26-19.369-24.387-29.723-28.942-32.83-64.96-73.689-71.061-142.828-2.402-27.221-1.145-37.379-0.638-40.08 0.678-1.291 1.208-2.665 1.573-4.094 0.037-0.141 5.472-14.614 67.649-30.964 35.705-9.389 70.558-14.146 70.906-14.193 0.304-0.041 0.607-0.09 0.909-0.145 46.096-8.55 84.957-22.992 115.505-42.923 25.252-16.476 44.93-36.702 58.489-60.114 21.502-37.129 20.627-70.714 20.196-77.444l0-22.333c0-10.326-8.371-18.697-18.697-18.697l-176.883 0c-10.326 0-18.697 8.371-18.697 18.697 0 10.326 8.371 18.697 18.697 18.697L934.07-33.207l0 4.311c0 0.687 0.009 1.106 0.082 1.769 0.104 1.508 1.627 28.332-16.349 58.131-10.82 17.938-26.59 33.609-46.87 46.581-26.1 16.693-59.762 28.968-100.052 36.483-4.64 0.643-39.012 5.565-75.081 15.06-70.761 18.629-87.964 39.353-93.189 54.396-4.004 7.766-6.245 23.195-2.985 60.153 7.181 81.369 49.419 129.282 80.261 164.268 8.747 9.922 16.301 18.491 21.693 26.279 21.12 30.511 24.438 66.3 24.765 70.606-0.033 2.252-0.261 3.223-0.362 3.55-0.249 0.798-1.897 2.547-3.49 4.238-1.25 1.327-2.668 2.833-4.136 4.587-7.95 9.504-10.783 21.079-8.66 35.385 2.368 15.96 3.781 29.206 4.449 41.684 1.951 36.502 0.914 63.748-3.364 88.341-0.057 0.326-0.105 0.655-0.145 0.983-0.531 4.438-1.531 9.354-3.148 15.469-4.987 18.884-12.727 34.771-23.007 47.233-1.714 1.748-15.385 15.125-45.883 29.676C583.715 802.16 517.807 811.826 472.181 815.325c-21.935 1.681-44.442 0.733-65.614-0.383l-1.179-0.06c-1.766-0.09-4.736-0.242-7.558-0.526 2.448-5.841 5.453-14.632 2.296-25.136-1.185-3.94-3.003-7.792-5.723-12.129-6.732-10.733-15.924-19.236-24.055-26.145-1.597-1.442-34.223-31.356-35.351-65.738-0.029-0.87-0.118-1.737-0.267-2.594-5.972-34.304-5.569-90.78 0.898-125.894 0.14-0.765 0.289-1.526 0.436-2.283 1.98-10.205 5.295-27.284-10.88-42.202l-0.435-0.402c-2.087-1.925-4.944-4.561-5.416-5.469l0 0c0.003 0-0.133-0.427-0.165-1.584 0.328-4.296 3.654-40.06 24.764-70.555 5.392-7.788 12.946-16.357 21.693-26.279 30.841-34.985 73.079-82.899 80.26-164.266 3.26-36.959 1.019-52.388-2.985-60.154-5.226-15.043-22.428-35.767-93.189-54.396-36.365-9.574-71.006-14.497-75.189-15.074-39.834-6.958-73.196-18.883-99.16-35.445-20.186-12.876-35.971-28.599-46.919-46.732-18.282-30.282-17.133-57.861-17.055-59.336 0.05-0.543 0.054-0.868 0.054-1.434l0-4.309 700.077 0M631.465 206.126c0.454-0.368 0.89-0.757 1.306-1.165C632.377 205.348 631.942 205.739 631.465 206.126zM414.041 206.126c-0.472-0.383-0.902-0.768-1.292-1.152C413.16 205.375 413.592 205.76 414.041 206.126z"  horiz-adv-x="1024" />

    
    <glyph glyph-name="zhongxiyaopin" unicode="&#59142;" d="M547.571147 469.735663 382.442272 230.034373c-3.195785-4.79419-194.425108 239.169171-194.425108 239.169171-20.240997 30.894637-30.894637 66.583464-30.894637 102.805434 0 108.664885 94.282317 197.620893 210.405057 197.620893s210.405057-88.956008 210.405057-197.620893C577.932642 535.787008 567.812143 500.631324 547.571147 469.735663zM871.435279 358.408135 574.204737 732.34264C484.715587 844.20331 317.989331 864.977449 201.867614 776.021441c-117.720122-89.48915-138.494261-255.682263-46.342468-369.141338L462.876186 29.749814c90.02127-110.263289 254.083859-124.644835 365.94453-32.493042C939.617148 87.811184 958.25974 249.210108 871.435279 358.408135z"  horiz-adv-x="1024" />

    
    <glyph glyph-name="jsgl" unicode="&#58926;" d="M477.866667 307.2c64 0 123.733333 25.6 166.4 68.266667 46.933333 42.666667 68.266667 102.4 68.266666 166.4s-25.6 123.733333-68.266666 166.4c-42.666667 46.933333-102.4 68.266667-166.4 68.266666s-123.733333-25.6-166.4-68.266666c-46.933333-38.4-72.533333-98.133333-72.533334-162.133334s25.6-123.733333 68.266667-166.4c46.933333-46.933333 106.666667-72.533333 170.666667-72.533333z m0 418.133333c98.133333 0 179.2-81.066667 179.2-179.2 0-98.133333-81.066667-179.2-179.2-179.2-98.133333 0-179.2 81.066667-179.2 179.2C298.666667 644.266667 379.733333 725.333333 477.866667 725.333333zM315.733333 315.733333c-46.933333-21.333333-93.866667-51.2-132.266666-89.6-38.4-38.4-68.266667-81.066667-89.6-132.266666-12.8-34.133333-21.333333-64-29.866667-98.133334-4.266667-17.066667 12.8-34.133333 29.866667-34.133333 12.8 0 25.6 8.533333 29.866666 25.6 4.266667 29.866667 12.8 59.733333 25.6 85.333333 17.066667 42.666667 42.666667 81.066667 76.8 110.933334 34.133333 34.133333 72.533333 59.733333 115.2 76.8 17.066667 8.533333 21.333333 25.6 17.066667 38.4-8.533333 17.066667-25.6 21.333333-42.666667 17.066666zM938.666667 413.866667c-12.8 12.8-34.133333 8.533333-46.933334-4.266667l-307.2-379.733333L409.6 170.666667c-12.8 12.8-34.133333 8.533333-46.933333-4.266667-12.8-12.8-8.533333-34.133333 4.266666-46.933333l200.533334-162.133334c4.266667-4.266667 12.8-8.533333 21.333333-8.533333s17.066667 4.266667 25.6 12.8l328.533333 401.066667c12.8 21.333333 12.8 38.4-4.266666 51.2z"  horiz-adv-x="1024" />

    
    <glyph glyph-name="yaopinshuju" unicode="&#58900;" d="M902.4 774.4c-51.2 51.2-121.6 76.8-192 76.8s-140.8-25.6-192-76.8L121.6 384c-108.8-108.8-108.8-281.6 0-384 51.2-51.2 121.6-76.8 192-76.8s140.8 25.6 192 76.8l396.8 384c51.2 51.2 76.8 121.6 76.8 192 0 76.8-25.6 147.2-76.8 198.4zM480 25.6c-44.8-44.8-102.4-70.4-166.4-70.4s-121.6 25.6-166.4 70.4C57.6 115.2 57.6 262.4 147.2 358.4l179.2 179.2 332.8-332.8-179.2-179.2z m364.8 665.6c-6.4-6.4-19.2-6.4-25.6 0-32 32-70.4 44.8-108.8 44.8-44.8 0-83.2-19.2-108.8-44.8l-121.6-128c-12.8 0-19.2-6.4-19.2-6.4-6.4 0-12.8 0-12.8 6.4-6.4 6.4-6.4 19.2 0 25.6l128 128c38.4 38.4 83.2 57.6 140.8 57.6 51.2 0 102.4-19.2 140.8-57.6-6.4-6.4-6.4-19.2-12.8-25.6z"  horiz-adv-x="1024" />

    
    <glyph glyph-name="yonghu1" unicode="&#58931;" d="M505.206216 295.634282c-164.725984 0-298.740344 134.619286-298.740343 300.04326 0 165.423975 134.01436 300.043261 298.740343 300.043261 164.772517 0 298.786876-134.619286 298.786877-300.043261 0-165.423975-134.01436-300.043261-298.740344-300.04326z m0 565.37308C359.605199 861.053894 241.179315 741.976552 241.179315 595.724075c0-146.345542 118.472417-265.329819 264.073434-265.329819 145.647551 0 264.119967 118.984277 264.119968 265.329819 0 146.299009-118.518949 265.376352-264.119968 265.376352zM992.636917-127.441607H17.822049a17.356721 17.356721 0 0 0-17.356721 17.356721l-0.186131 6.979915c0 231.081705 226.474961 419.074071 504.927019 419.07407 278.452059 0 504.973553-187.992366 504.973553-419.07407l-0.139598-5.304735c-0.372262-9.306553-8.143234-19.0319-17.403254-19.031901zM35.039171-92.774698h939.961829c-8.934291 209.164773-216.284286 374.076888-469.841316 374.076888-255.046078 0-463.326729-166.866491-470.120513-374.076888z"  horiz-adv-x="1024" />

    
    <glyph glyph-name="shangchuandailixieyisaomiaojian" unicode="&#58969;" d="M965.398-121.23h-352.282v39.491c0.501 16.925 9.779 24.196 31.843 24.697h288.595c22.065 0 31.843-8.274 31.843-25.7v-38.488zM884.16 70.331c5.642 6.644 11.283 13.916 16.925 22.065 35.98 55.914 23.569 129.379-28.709 171.001-23.569 18.429-52.905 28.709-83.244 28.709-35.479 0-68.325-13.289-92.897-37.986-47.263-46.762-47.765-125.242-2.507-184.917l-1.003-1.003c-4.137-4.639-5.642-6.644-7.146-8.274-10.782-14.417-14.417-35.98-9.277-52.905 8.274-27.706 35.479-30.84 45.759-31.843 8.776-1.003 17.928-1.003 29.837-1.003h19.056c12.286 0 24.196 0 36.482 0.501h45.634c31.342 0 44.129 17.928 48.768 28.709 9.277 21.062 5.14 42.625-11.283 60.051-1.755 2.758-3.761 4.764-6.394 6.895zM578.64-79.107c0 12.787 5.14 53.908 61.681 53.908h15.922c-6.644 8.274-11.283 17.426-13.289 25.7-6.644 23.569-3.134 50.899 9.277 72.462-40.619 68.827-33.849 153.575 18.429 204.85 30.339 29.837 70.833 46.261 113.959 46.261 36.983 0 72.964-12.286 101.673-35.479 23.068-18.429 39.992-41.622 49.771-67.322v531.432c0 79.107-60.552 143.295-135.021 143.295h-608.031c-9.277 0-18.429-1.003-27.706-3.134-8.776-2.006-17.426-4.639-25.7-8.776-7.647-3.134-15.42-7.647-22.566-12.787-17.928-12.787-32.846-30.339-42.625-50.774-10.28-20.56-15.922-44.129-15.922-67.824v-737.41c0-79.107 60.552-143.295 135.021-143.295h385.63v18.554c-0.501 10.782-0.501 24.697-0.501 30.339zM220.215 693.657h579.197c10.28 0 18.429-10.782 18.429-23.569 0-13.289-8.274-23.569-18.429-23.569h-579.197c-10.28 0-18.429 10.782-18.429 23.569s8.149 23.569 18.429 23.569zM220.215 516.012h579.197c10.28 0 18.429-10.782 18.429-23.569 0-13.289-8.274-23.569-18.429-23.569h-579.197c-10.28 0-18.429 10.782-18.429 23.569 0 12.787 8.149 23.569 18.429 23.569zM502.667 141.164h-277.312c-13.289 0-23.569 10.782-23.569 23.569s10.782 23.569 23.569 23.569h277.312c13.289 0 23.569-10.782 23.569-23.569s-10.155-23.569-23.569-23.569zM502.667 312.165h-277.312c-13.289 0-23.569 10.782-23.569 23.569s10.782 23.569 23.569 23.569h277.312c13.289 0 23.569-10.782 23.569-23.569 0-12.787-10.155-23.569-23.569-23.569z"  horiz-adv-x="1024" />

    
    <glyph glyph-name="zhanghaoguanli1" unicode="&#58887;" d="M970.667 202.666v-64l-57.6-12.8-19.2-38.4 32-51.2-44.8-44.8-51.2 32-38.4-19.2-12.8-57.6h-64l-12.8 57.6-38.4 19.2-51.2-32-44.8 44.8 32 51.2-19.2 38.4-57.6 12.8v64l57.6 12.8 19.2 38.4-32 51.2 44.8 44.8 51.2-32 38.4 19.2 12.8 57.6h64l12.8-57.6 38.4-19.2 51.2 32 44.8-44.8-32-51.2 19.2-38.4 57.6-12.8zM746.667 285.866c-64 0-108.8-51.2-108.8-108.8 0-64 51.2-115.2 108.8-115.2 64 0 115.2 51.2 115.2 115.2-6.4 57.6-51.2 102.4-115.2 108.8zM458.667 330.666c-179.2 0-320-140.8-320-320h-64c0 166.4 102.4 307.2 249.6 358.4-70.4 44.8-121.6 128-121.6 217.6 0 140.8 115.2 256 256 256s256-115.2 256-256-115.2-256-256-256zM458.667 778.666c-108.8 0-192-83.2-192-192s83.2-192 192-192 192 83.2 192 192-83.2 192-192 192z"  horiz-adv-x="1024" />

    
    <glyph glyph-name="caigou" unicode="&#58880;" d="M736.468-51.076c-53.512 0-97.052 43.524-97.052 97.016 0.044 53.476 43.584 96.976 97.052 96.976 53.516 0 97.056-43.504 97.056-96.976 0-53.492-43.536-97.016-97.056-97.016z m-0.008 140.384c-23.94 0-43.416-19.472-43.416-43.404s19.476-43.404 43.416-43.404c23.972 0 43.476 19.472 43.476 43.404s-19.504 43.404-43.476 43.404z m-338.448-143.292c-53.512 0-97.052 43.524-97.052 97.016 0.044 53.476 43.584 96.976 97.052 96.976 53.516 0 97.056-43.504 97.056-96.976-0.004-53.492-43.54-97.016-97.056-97.016z m-0.008 140.384c-23.94 0-43.416-19.472-43.416-43.404s19.476-43.404 43.416-43.404c23.972 0 43.476 19.472 43.476 43.404S421.976 86.4 398.004 86.4z m21.632 101.792c-54 0-95.208 72.832-110.64 140.508-7.572 33.164-93.484 367.836-99.888 391.996-2.296 5.264-3.496 10.008-4.38 13.5l-0.276 1.08h-96.88c-18.048 0-32.736 14.688-32.736 32.74 0 18.012 14.684 32.664 32.736 32.664h98.556c33.592 0 48.78-3.52 63.948-38.932 0.508-1.148 0.912-2.296 1.368-3.744 1.28-4.652 8.164-33.344 19.572-80.876l0.18-0.756c21.68-90.336 57.44-239.332 73.504-301.68h368.528c13.388 0 13.388 0 17.768 7.524 1.456 2.472 2.892 4.896 4.516 7.5 5.864 9.18 42.828 92.66 67.28 147.896l0.472 1.068c16.944 38.264 31.596 71.348 38.148 85.212 2.084 5.512 3.144 9.752 3.676 12.824-16.424-0.152-68.024-0.228-153.56-0.228-153.744 0-359.692 0.244-369.304 0.268-18.016 0.036-32.676 14.712-32.676 32.72 0.04 18.032 14.724 32.688 32.728 32.688l9.26-0.008c43.076-0.048 227.852-0.248 364.74-0.248 89.748 0 140.82 0.084 151.8 0.256h0.012c29.544 0 44.94-13.384 52.676-24.608 13.384-19.492 13.716-46.032 0.996-78.904-0.14-0.36-0.276-0.68-0.424-1-6.628-14.016-21.368-47.228-38.436-85.684-37.792-85.148-65.088-146.272-72.112-157.292-0.636-1.024-1.316-2.16-1.976-3.264l-1.396-2.332c-11.68-20.076-27.076-39.768-74.18-39.768H384.256c9.272-23.656 23.192-55.692 35.384-55.692h321.424c18.052 0 32.736-14.688 32.736-32.744 0-18.024-14.684-32.684-32.736-32.684h-321.428zM419.636 195.952c-47.212 0-87.672 66.924-103.076 134.472-7.38 32.332-93.812 369.34-100.108 392.856-2.192 4.892-3.304 9.276-4.204 12.832-1.752 6.928-1.752 6.928-6.12 6.928H107.572a25.008 25.008 0 0 0-24.976 24.984c0 13.732 11.204 24.904 24.976 24.904h98.556c31.86 0 43.296-2.656 56.816-34.228 0.428-0.968 0.74-1.872 1.096-3.012 1.172-4.28 8.508-34.852 19.612-81.12 22.552-93.972 59.788-249.12 75.044-307.628h374.532c17.852 0 18.604 1.296 24.472 11.384 1.4 2.38 2.808 4.748 4.396 7.296 6.12 9.576 41.764 90.076 67.792 148.86 17.256 38.964 32.168 72.648 38.672 86.38 4.78 12.54 5.08 20.176 4.652 23.24a22.092 22.092 0 0 1-4.672 0.42c-11.28-0.176-64.152-0.268-157.012-0.268-153.08 0-359.58 0.244-369.284 0.268-13.748 0.028-24.94 11.224-24.94 24.964 0.032 13.752 11.236 24.928 24.968 24.928l9.252-0.008c43.076-0.048 227.856-0.248 364.748-0.248 89.852 0 140.968 0.088 151.92 0.256 26.084 0 39.496-11.556 46.18-21.252 11.844-17.248 11.888-41.364 0.148-71.704a8.32 8.32 0 0 0-0.22-0.516c-6.632-14.028-21.4-47.3-38.496-85.824-36.436-82.092-64.84-145.724-71.564-156.264-0.748-1.196-1.492-2.452-2.216-3.664l-1.268-2.116c-11.004-18.92-24.508-36-67.524-36H372.948c12.316-32.232 27.644-71.208 46.692-71.208h321.424a25.004 25.004 0 0 0 24.976-24.984c0-13.744-11.204-24.928-24.976-24.928h-321.428z"  horiz-adv-x="1024" />

    
    <glyph glyph-name="canshupeizhi" unicode="&#58948;" d="M972.8 896H51.2a51.2 51.2 0 0 1-51.2-51.2v-921.6a51.2 51.2 0 0 1 51.2-51.2h921.6a51.2 51.2 0 0 1 51.2 51.2V844.8a51.2 51.2 0 0 1-51.2 51.2z m0-972.8H51.2V844.8h921.6zM179.2 588.8H358.4v-25.6a25.6 25.6 0 0 1 51.2 0V588.8h435.2a25.6 25.6 0 0 1 0 51.2H409.6v25.6a25.6 25.6 0 0 1-51.2 0V640H179.2a25.6 25.6 0 0 1 0-51.2zM179.2 384H512v-25.6a25.6 25.6 0 0 1 51.2 0V384h281.6a25.6 25.6 0 0 1 0 51.2H563.2v25.6a25.6 25.6 0 0 1-51.2 0V435.2H179.2a25.6 25.6 0 0 1 0-51.2zM179.2 179.2H665.6v-25.6a25.6 25.6 0 0 1 51.2 0V179.2h128a25.6 25.6 0 0 1 0 51.2H716.8v25.6a25.6 25.6 0 0 1-51.2 0v-25.6H179.2a25.6 25.6 0 0 1 0-51.2z"  horiz-adv-x="1024" />

    
    <glyph glyph-name="dingdanpeisong" unicode="&#59055;" d="M961 741.8c0 17.6-14.4 32-32 32H372.2c-17.6 0-32-14.4-32-32v-112.4L91.3 499c-15.2-2.8-26.7-16.2-26.7-32.2V142c0-18 14.7-32.7 32.7-32.7h100.5c9.6-58 60.1-102.4 120.8-102.4 60.7 0 111.2 44.4 120.8 102.4h154.2c9.6-58 60.1-102.4 120.8-102.4s111.2 44.4 120.8 102.4h93.2c18 0 32.7 14.7 32.7 32.7V604.6c0 4.3-0.9 8.5-2.4 12.3 1.5 3.8 2.4 7.9 2.4 12.2V741.8z m-40-8v-96.5H380.2v96.5H921zM340.2 584.3v-190.8H104.7h-0.1v67.4l235.6 123.4z m-21.6-537.4c-45.5 0-82.4 37-82.4 82.4 0 2.8 0.1 5.6 0.4 8.4 0.3 2.8 0.7 5.5 1.3 8.2 0.3 1.3 0.6 2.7 0.9 4 9.2 35.5 41.5 61.9 79.8 61.9 45.5 0 82.4-37 82.4-82.4 0-45.6-37-82.5-82.4-82.5z m395.7 0c-45.5 0-82.4 37-82.4 82.4 0 45.5 37 82.4 82.4 82.4 45.5 0 82.4-37 82.4-82.4 0.1-45.5-36.9-82.4-82.4-82.4z m120.8 102.4c-0.1 0.3-0.1 0.6-0.2 0.9-0.1 0.4-0.1 0.8-0.2 1.2-0.1 0.6-0.2 1.1-0.3 1.7-0.1 0.4-0.1 0.8-0.2 1.1-0.1 0.6-0.3 1.2-0.4 1.8-0.1 0.3-0.1 0.7-0.2 1-0.2 0.8-0.4 1.5-0.6 2.3 0 0.2-0.1 0.4-0.1 0.5-0.2 0.9-0.5 1.9-0.8 2.8 0 0.1-0.1 0.3-0.1 0.4-0.2 0.8-0.5 1.6-0.7 2.3-0.1 0.3-0.2 0.6-0.3 0.8-0.2 0.6-0.4 1.3-0.6 1.9-0.1 0.3-0.2 0.6-0.3 1l-0.6 1.8c-0.1 0.3-0.2 0.7-0.4 1-0.2 0.6-0.4 1.1-0.7 1.7-0.1 0.3-0.3 0.7-0.4 1-0.2 0.6-0.5 1.1-0.7 1.7-0.1 0.3-0.3 0.6-0.4 0.9-0.3 0.6-0.5 1.2-0.8 1.8-0.1 0.3-0.2 0.6-0.4 0.8-0.3 0.6-0.6 1.3-0.9 1.9l-0.3 0.6c-0.4 0.8-0.8 1.7-1.3 2.5-0.4 0.9-0.9 1.7-1.4 2.6 0 0 0 0.1-0.1 0.1-0.4 0.8-0.9 1.6-1.3 2.3l-0.3 0.6c-0.4 0.6-0.7 1.2-1.1 1.8-0.1 0.2-0.3 0.5-0.5 0.7-0.3 0.6-0.7 1.1-1 1.7-0.2 0.3-0.3 0.5-0.5 0.8-0.4 0.5-0.7 1.1-1.1 1.6-0.2 0.3-0.3 0.5-0.5 0.8-0.4 0.5-0.7 1.1-1.1 1.6-0.2 0.2-0.3 0.5-0.5 0.7-0.4 0.6-0.8 1.1-1.2 1.6-0.2 0.2-0.3 0.4-0.5 0.6-0.5 0.6-0.9 1.2-1.4 1.8-0.1 0.1-0.2 0.3-0.3 0.4-1.2 1.5-2.4 3-3.7 4.4 0 0 0 0.1-0.1 0.1-0.6 0.7-1.2 1.4-1.8 2-0.1 0.2-0.3 0.3-0.4 0.5-0.5 0.5-1 1.1-1.5 1.6l-0.6 0.6c-0.5 0.5-0.9 1-1.4 1.4l-0.6 0.6-1.4 1.4c-0.2 0.2-0.4 0.4-0.7 0.6-0.5 0.4-0.9 0.9-1.4 1.3-0.2 0.2-0.4 0.4-0.7 0.6-0.5 0.5-1 0.9-1.5 1.3-0.2 0.2-0.4 0.4-0.6 0.5-0.6 0.5-1.1 1-1.7 1.5-0.1 0.1-0.3 0.2-0.4 0.4l-4.5 3.6c-0.1 0.1-0.2 0.1-0.2 0.2-0.7 0.5-1.4 1-2 1.5-0.2 0.1-0.4 0.3-0.6 0.4-0.6 0.4-1.1 0.8-1.7 1.2-0.3 0.2-0.5 0.3-0.8 0.5-0.5 0.4-1.1 0.7-1.6 1.1-0.3 0.2-0.5 0.4-0.8 0.5-0.5 0.3-1 0.7-1.6 1-0.3 0.2-0.6 0.3-0.9 0.5-0.5 0.3-1.1 0.6-1.6 0.9-0.3 0.2-0.6 0.3-0.8 0.5-0.6 0.3-1.1 0.6-1.7 0.9-0.3 0.1-0.5 0.3-0.8 0.4-0.6 0.3-1.3 0.7-1.9 1l-0.6 0.3c-1.7 0.9-3.4 1.7-5.2 2.5-0.2 0.1-0.4 0.2-0.5 0.2l-2.1 0.9c-0.3 0.1-0.6 0.2-0.9 0.4-0.6 0.2-1.2 0.5-1.8 0.7-0.3 0.1-0.7 0.3-1 0.4-0.6 0.2-1.1 0.4-1.7 0.6-0.3 0.1-0.7 0.3-1 0.4-0.6 0.2-1.1 0.4-1.7 0.6-0.4 0.1-0.7 0.2-1.1 0.4-0.6 0.2-1.1 0.4-1.7 0.5-0.4 0.1-0.7 0.2-1.1 0.3-0.6 0.2-1.2 0.4-1.8 0.5-0.3 0.1-0.7 0.2-1 0.3-0.6 0.2-1.3 0.4-1.9 0.5-0.3 0.1-0.6 0.2-0.8 0.2-0.9 0.2-1.9 0.5-2.8 0.7-0.9 0.2-1.9 0.4-2.9 0.6-0.3 0.1-0.6 0.1-0.8 0.2-0.7 0.1-1.3 0.3-2 0.4-0.4 0.1-0.7 0.1-1.1 0.2l-1.8 0.3c-0.4 0.1-0.8 0.1-1.2 0.2-0.6 0.1-1.2 0.2-1.7 0.2-0.4 0.1-0.8 0.1-1.2 0.2-0.6 0.1-1.1 0.1-1.7 0.2-0.4 0-0.8 0.1-1.2 0.1-0.6 0.1-1.2 0.1-1.7 0.2-0.4 0-0.8 0.1-1.2 0.1-0.6 0-1.2 0.1-1.8 0.1-0.4 0-0.8 0-1.2 0.1-0.7 0-1.3 0.1-2 0.1h-8c-0.7 0-1.3 0-2-0.1-0.4 0-0.8 0-1.2-0.1-0.6 0-1.2-0.1-1.8-0.1-0.4 0-0.8-0.1-1.2-0.1-0.6 0-1.2-0.1-1.7-0.2-0.4 0-0.8-0.1-1.2-0.1-0.6-0.1-1.1-0.1-1.7-0.2-0.4 0-0.8-0.1-1.2-0.2-0.6-0.1-1.2-0.2-1.7-0.2-0.4-0.1-0.8-0.1-1.2-0.2l-1.8-0.3c-0.4-0.1-0.7-0.1-1.1-0.2-0.7-0.1-1.3-0.3-2-0.4-0.3-0.1-0.6-0.1-0.8-0.2-1-0.2-1.9-0.4-2.9-0.6-0.9-0.2-1.9-0.4-2.8-0.7-0.3-0.1-0.6-0.2-0.8-0.2-0.6-0.2-1.3-0.3-1.9-0.5-0.3-0.1-0.7-0.2-1-0.3-0.6-0.2-1.2-0.3-1.8-0.5-0.4-0.1-0.7-0.2-1.1-0.3-0.6-0.2-1.1-0.4-1.7-0.5-0.4-0.1-0.7-0.2-1.1-0.4-0.6-0.2-1.1-0.4-1.7-0.6-0.3-0.1-0.7-0.3-1-0.4-0.6-0.2-1.1-0.4-1.7-0.6-0.3-0.1-0.7-0.3-1-0.4-0.6-0.2-1.2-0.5-1.8-0.7-0.3-0.1-0.6-0.2-0.9-0.4l-2.1-0.9c-0.2-0.1-0.4-0.2-0.5-0.2-1.7-0.8-3.5-1.6-5.2-2.5l-0.6-0.3c-0.6-0.3-1.3-0.7-1.9-1-0.3-0.1-0.5-0.3-0.8-0.4-0.6-0.3-1.1-0.6-1.7-0.9-0.3-0.2-0.6-0.3-0.9-0.5-0.5-0.3-1.1-0.6-1.6-0.9-0.3-0.2-0.6-0.3-0.9-0.5-0.5-0.3-1.1-0.7-1.6-1-0.3-0.2-0.6-0.4-0.8-0.5-0.5-0.3-1.1-0.7-1.6-1.1-0.3-0.2-0.5-0.3-0.8-0.5-0.6-0.4-1.1-0.8-1.7-1.2-0.2-0.1-0.4-0.3-0.6-0.4-0.7-0.5-1.4-1-2-1.5-0.1-0.1-0.2-0.1-0.3-0.2-1.5-1.1-3-2.3-4.5-3.6-0.1-0.1-0.3-0.2-0.4-0.4-0.6-0.5-1.1-1-1.7-1.4-0.2-0.2-0.4-0.4-0.6-0.5-0.5-0.4-1-0.9-1.5-1.3-0.2-0.2-0.4-0.4-0.7-0.6-0.5-0.4-0.9-0.9-1.4-1.3-0.2-0.2-0.4-0.4-0.7-0.6-0.5-0.4-0.9-0.9-1.4-1.3l-0.6-0.6-1.4-1.4-0.6-0.6c-0.5-0.5-1-1-1.5-1.6l-0.5-0.5c-0.6-0.7-1.2-1.3-1.8-2l-0.1-0.1c-1.3-1.5-2.5-2.9-3.7-4.4-0.1-0.2-0.2-0.3-0.4-0.5-0.5-0.6-0.9-1.2-1.4-1.8-0.2-0.2-0.3-0.4-0.5-0.7-0.4-0.5-0.8-1.1-1.2-1.6-0.2-0.2-0.3-0.5-0.5-0.7-0.4-0.5-0.7-1.1-1.1-1.6-0.2-0.3-0.4-0.5-0.5-0.8-0.4-0.5-0.7-1.1-1.1-1.6-0.2-0.3-0.3-0.5-0.5-0.8-0.4-0.6-0.7-1.1-1-1.7-0.2-0.2-0.3-0.5-0.5-0.7-0.4-0.6-0.7-1.2-1.1-1.8-0.1-0.2-0.2-0.4-0.4-0.6-0.4-0.8-0.9-1.5-1.3-2.3 0-0.1-0.1-0.1-0.1-0.2-0.5-0.9-0.9-1.7-1.4-2.6-0.4-0.8-0.8-1.7-1.2-2.5-0.1-0.2-0.2-0.4-0.3-0.7-0.3-0.6-0.6-1.3-0.9-1.9-0.1-0.3-0.3-0.6-0.4-0.9-0.3-0.6-0.5-1.2-0.8-1.8-0.1-0.3-0.3-0.6-0.4-0.9-0.2-0.6-0.5-1.1-0.7-1.7-0.1-0.3-0.3-0.7-0.4-1-0.2-0.6-0.4-1.1-0.6-1.7-0.1-0.3-0.2-0.7-0.4-1-0.2-0.6-0.4-1.2-0.6-1.7-0.1-0.3-0.2-0.6-0.3-1-0.2-0.6-0.4-1.2-0.6-1.9l-0.3-0.9c-0.2-0.8-0.5-1.5-0.7-2.3 0-0.2-0.1-0.3-0.1-0.5-0.3-0.9-0.5-1.9-0.8-2.8 0-0.2-0.1-0.4-0.1-0.6-0.2-0.7-0.4-1.5-0.6-2.2-0.1-0.3-0.1-0.7-0.2-1-0.1-0.6-0.3-1.2-0.4-1.8-0.1-0.4-0.2-0.8-0.2-1.1-0.1-0.6-0.2-1.1-0.3-1.7-0.1-0.4-0.1-0.8-0.2-1.2-0.1-0.3-0.1-0.6-0.2-0.9H439.4c-0.1 0.3-0.1 0.6-0.2 0.9-0.1 0.4-0.1 0.8-0.2 1.2-0.1 0.6-0.2 1.1-0.3 1.7-0.1 0.4-0.1 0.8-0.2 1.1-0.1 0.6-0.3 1.2-0.4 1.8-0.1 0.3-0.1 0.7-0.2 1-0.2 0.7-0.4 1.5-0.5 2.2-0.1 0.2-0.1 0.4-0.1 0.6-0.2 0.9-0.5 1.9-0.8 2.8 0 0.2-0.1 0.3-0.1 0.5-0.2 0.8-0.4 1.5-0.7 2.3l-0.3 0.9c-0.2 0.6-0.4 1.2-0.6 1.9-0.1 0.3-0.2 0.7-0.3 1-0.2 0.6-0.4 1.2-0.6 1.7-0.1 0.3-0.2 0.7-0.4 1-0.2 0.6-0.4 1.1-0.6 1.7-0.1 0.3-0.3 0.7-0.4 1-0.2 0.6-0.5 1.1-0.7 1.7-0.1 0.3-0.3 0.6-0.4 1-0.2 0.6-0.5 1.2-0.8 1.7-0.1 0.3-0.3 0.6-0.4 0.9-0.3 0.6-0.6 1.3-0.9 1.9-0.1 0.2-0.2 0.5-0.3 0.7l-1.2 2.4v0.1c-0.4 0.9-0.9 1.7-1.4 2.6 0 0.1-0.1 0.1-0.1 0.2-0.4 0.8-0.8 1.5-1.3 2.3-0.1 0.2-0.2 0.4-0.4 0.6-0.4 0.6-0.7 1.2-1.1 1.8-0.2 0.3-0.3 0.5-0.5 0.8-0.3 0.6-0.7 1.1-1 1.6-0.2 0.3-0.3 0.5-0.5 0.8-0.3 0.5-0.7 1.1-1 1.6-0.2 0.3-0.4 0.5-0.5 0.8-0.4 0.5-0.7 1-1.1 1.6-0.2 0.3-0.4 0.5-0.5 0.8-0.4 0.5-0.8 1.1-1.2 1.6-0.2 0.2-0.3 0.5-0.5 0.7-0.4 0.6-0.9 1.2-1.3 1.8-0.1 0.2-0.2 0.3-0.4 0.5-1.2 1.5-2.4 3-3.7 4.4 0 0.1-0.1 0.1-0.1 0.1-0.6 0.7-1.1 1.3-1.7 2l-0.5 0.5c-0.5 0.5-1 1-1.4 1.6l-0.6 0.6-1.4 1.4-0.7 0.7c-0.5 0.4-0.9 0.9-1.4 1.3-0.2 0.2-0.5 0.4-0.7 0.7-0.5 0.4-0.9 0.9-1.4 1.3-0.2 0.2-0.5 0.4-0.7 0.6-0.5 0.4-1 0.9-1.5 1.3-0.2 0.2-0.4 0.4-0.6 0.5-0.6 0.5-1.1 1-1.7 1.4-0.2 0.1-0.3 0.3-0.5 0.4-1.5 1.2-3 2.4-4.5 3.5-0.1 0.1-0.2 0.1-0.3 0.2-0.7 0.5-1.3 1-2 1.5-0.2 0.2-0.4 0.3-0.6 0.4-0.6 0.4-1.1 0.8-1.7 1.2-0.3 0.2-0.5 0.3-0.8 0.5-0.5 0.4-1.1 0.7-1.6 1-0.3 0.2-0.6 0.4-0.8 0.5-0.5 0.3-1 0.7-1.6 1-0.3 0.2-0.6 0.4-0.9 0.5-0.5 0.3-1.1 0.6-1.6 0.9-0.3 0.2-0.6 0.3-0.9 0.5-0.6 0.3-1.1 0.6-1.7 0.9-0.3 0.1-0.5 0.3-0.8 0.4-0.6 0.3-1.2 0.7-1.9 1l-0.6 0.3c-1.7 0.9-3.4 1.7-5.2 2.5-0.2 0.1-0.4 0.2-0.6 0.2-0.7 0.3-1.4 0.6-2 0.9-0.3 0.1-0.6 0.2-0.9 0.4-0.6 0.2-1.2 0.5-1.8 0.7-0.3 0.1-0.7 0.3-1 0.4-0.6 0.2-1.1 0.4-1.7 0.6-0.3 0.1-0.7 0.3-1 0.4-0.6 0.2-1.1 0.4-1.7 0.6-0.4 0.1-0.7 0.2-1.1 0.4-0.6 0.2-1.1 0.4-1.7 0.5-0.4 0.1-0.7 0.2-1.1 0.3-0.6 0.2-1.2 0.4-1.7 0.5-0.3 0.1-0.7 0.2-1 0.3-0.6 0.2-1.3 0.4-1.9 0.5-0.3 0.1-0.6 0.2-0.8 0.2-0.9 0.2-1.9 0.5-2.8 0.7-0.9 0.2-1.9 0.4-2.9 0.6-0.3 0.1-0.6 0.1-0.8 0.2-0.7 0.1-1.3 0.3-2 0.4-0.4 0.1-0.7 0.1-1.1 0.2l-1.8 0.3c-0.4 0.1-0.8 0.1-1.2 0.2-0.6 0.1-1.2 0.2-1.7 0.2-0.4 0.1-0.8 0.1-1.2 0.2-0.6 0.1-1.1 0.1-1.7 0.2-0.4 0-0.8 0.1-1.2 0.1-0.6 0.1-1.2 0.1-1.7 0.2-0.4 0-0.8 0.1-1.2 0.1-0.6 0-1.2 0.1-1.8 0.1-0.4 0-0.8 0-1.2 0.1-0.7 0-1.3 0.1-2 0.1h-8c-0.7 0-1.3 0-2-0.1-0.4 0-0.8 0-1.2-0.1-0.6 0-1.2-0.1-1.8-0.1-0.4 0-0.8-0.1-1.2-0.1-0.6 0-1.2-0.1-1.7-0.2-0.4 0-0.8-0.1-1.2-0.1-0.6-0.1-1.1-0.1-1.7-0.2-0.4 0-0.8-0.1-1.2-0.2-0.6-0.1-1.2-0.2-1.7-0.2-0.4-0.1-0.8-0.1-1.2-0.2l-1.8-0.3c-0.4-0.1-0.7-0.1-1.1-0.2-0.7-0.1-1.3-0.3-2-0.4-0.3-0.1-0.6-0.1-0.8-0.2-1.9-0.4-3.8-0.8-5.7-1.3-0.3-0.1-0.6-0.1-0.8-0.2-0.7-0.2-1.3-0.3-2-0.5-0.3-0.1-0.7-0.2-1-0.3-0.6-0.2-1.2-0.3-1.8-0.5-0.4-0.1-0.7-0.2-1.1-0.3-0.6-0.2-1.1-0.4-1.7-0.6-0.4-0.1-0.7-0.2-1.1-0.4-0.6-0.2-1.1-0.4-1.7-0.6-0.3-0.1-0.7-0.3-1-0.4-0.6-0.2-1.1-0.4-1.7-0.6-0.3-0.1-0.6-0.3-1-0.4-0.6-0.2-1.2-0.5-1.8-0.7-0.3-0.1-0.6-0.2-0.8-0.4l-2.1-0.9c-0.2-0.1-0.4-0.2-0.5-0.2-1.7-0.8-3.5-1.6-5.2-2.5l-0.6-0.3c-0.6-0.3-1.3-0.7-1.9-1-0.3-0.1-0.5-0.3-0.8-0.4-0.6-0.3-1.1-0.6-1.7-1-0.3-0.2-0.6-0.3-0.8-0.5-0.5-0.3-1.1-0.6-1.6-1-0.3-0.2-0.6-0.3-0.8-0.5-0.5-0.3-1.1-0.7-1.6-1-0.3-0.2-0.5-0.3-0.8-0.5-0.5-0.4-1.1-0.7-1.6-1.1-0.2-0.2-0.5-0.3-0.7-0.5-0.6-0.4-1.1-0.8-1.7-1.2-0.2-0.1-0.4-0.3-0.6-0.4l-2.1-1.5-0.2-0.2c-1.5-1.2-3-2.3-4.5-3.6-0.1-0.1-0.3-0.2-0.4-0.3-0.6-0.5-1.2-1-1.7-1.5-0.2-0.2-0.4-0.3-0.6-0.5-0.5-0.4-1-0.9-1.5-1.4l-0.6-0.6c-0.5-0.4-1-0.9-1.4-1.3-0.2-0.2-0.4-0.4-0.7-0.6l-1.4-1.4-0.6-0.6c-0.5-0.5-0.9-1-1.4-1.4l-0.6-0.6c-0.5-0.5-1-1.1-1.5-1.6-0.1-0.2-0.3-0.3-0.4-0.5-0.6-0.7-1.2-1.4-1.8-2l-0.1-0.1c-1.3-1.5-2.5-2.9-3.7-4.5-0.1-0.1-0.2-0.3-0.3-0.4-0.5-0.6-0.9-1.2-1.4-1.8-0.2-0.2-0.3-0.4-0.5-0.6-0.4-0.5-0.8-1.1-1.2-1.6-0.2-0.2-0.3-0.5-0.5-0.7-0.4-0.5-0.7-1.1-1.1-1.6-0.2-0.3-0.3-0.5-0.5-0.8-0.4-0.5-0.7-1.1-1.1-1.6-0.2-0.3-0.3-0.5-0.5-0.8-0.4-0.6-0.7-1.1-1.1-1.7-0.1-0.2-0.3-0.5-0.4-0.7-0.4-0.6-0.7-1.2-1.1-1.8l-0.3-0.6c-0.4-0.8-0.9-1.5-1.3-2.3l-0.1-0.1c-0.5-0.9-0.9-1.7-1.4-2.6-0.4-0.8-0.8-1.7-1.3-2.5l-0.3-0.6c-0.3-0.6-0.6-1.3-0.9-1.9-0.1-0.3-0.3-0.6-0.4-0.8-0.3-0.6-0.5-1.2-0.8-1.8-0.1-0.3-0.3-0.6-0.4-0.9-0.2-0.6-0.5-1.1-0.7-1.7-0.1-0.3-0.3-0.7-0.4-1-0.2-0.6-0.4-1.1-0.7-1.7-0.1-0.3-0.2-0.7-0.4-1l-0.6-1.8c-0.1-0.3-0.2-0.6-0.3-1-0.2-0.6-0.4-1.3-0.6-1.9l-0.3-0.9c-0.2-0.8-0.5-1.5-0.7-2.3 0-0.2-0.1-0.3-0.1-0.5-0.3-0.9-0.5-1.9-0.8-2.8 0-0.2-0.1-0.4-0.1-0.6-0.2-0.7-0.4-1.5-0.6-2.2-0.1-0.3-0.1-0.7-0.2-1-0.1-0.6-0.3-1.2-0.4-1.8-0.1-0.4-0.2-0.8-0.2-1.1-0.1-0.6-0.2-1.1-0.3-1.7-0.1-0.4-0.1-0.8-0.2-1.2-0.1-0.3-0.1-0.6-0.2-0.9h-93.2V353.5h244.1c1.9 0 3.7 0.3 5.4 0.8 1.9-0.6 3.9-0.9 6-0.9 11 0 20 9 20 20V597.1H921v-447.8h-85.9z"  horiz-adv-x="1024" />

    
    <glyph glyph-name="gongyingshangweihu" unicode="&#58882;" d="M1008.64 843.264c0.512 2.56 1.024 5.376 1.024 8.192 0 2.56-0.256 5.376-1.024 7.936v0.256c-1.024 5.12-3.328 9.984-7.168 13.824-2.816 2.816-6.144 4.864-9.728 5.888h-0.256c-3.84 1.792-8.192 2.816-12.544 2.816H238.336c-9.472 0-18.432-4.352-24.32-11.776l-0.256-0.256-0.256-0.256c-0.512-0.512-1.28-1.024-1.792-1.792L22.784 679.168h-0.256C15.36 673.28 11.008 664.32 11.008 655.104c0-1.28 0-2.56 0.256-3.84v-0.512c0-0.768 0-1.536 0.256-2.304v-730.88c-0.256-1.536-0.256-3.072-0.256-4.864 0.256-17.152 14.08-31.232 31.232-31.488 2.304 0 4.352 0.256 6.656 0.768H771.072c4.608-1.024 9.216-1.024 13.824 0.256h0.512c6.912 0.768 13.056 3.584 18.176 8.448l0.256 0.256c1.792 1.28 3.328 2.816 4.864 4.352l187.136 187.136c9.984 9.984 14.592 23.296 12.544 35.072V843.264zM251.392 820.736h272.896l-134.912-134.912H116.48l134.912 134.912z m495.616-877.312H73.216v680.96h674.048v-680.96z m23.552 742.4H476.16l131.072 131.072c0.768 0.768 1.536 1.536 2.304 2.56l1.024 1.28h294.4L770.56 685.824z m176.384-566.016l-1.024-1.024-137.216-137.216v655.36l138.24 138.24v-655.36z m0 0M366.08 238.848h288c11.52-0.768 22.272 5.12 28.16 14.848 5.888 9.728 5.888 22.016 0 31.744-5.888 9.728-16.896 15.616-28.16 14.848h-38.656v88.576h18.944c11.52-0.768 22.272 5.12 28.16 14.848 5.888 9.728 5.888 22.016 0 31.744-5.888 9.728-16.896 15.616-28.16 14.848h-18.944V478.72c0.768 11.52-5.12 22.272-14.848 28.16-9.728 5.888-22.016 5.888-31.744 0-9.728-5.888-15.616-16.896-14.848-28.16v-28.16h-69.376v26.88c0.768 11.52-5.12 22.272-14.848 28.16-9.728 5.888-22.016 5.888-31.744 0-9.728-5.888-15.616-16.896-14.848-28.16V450.56h-37.12c-11.52 0.768-22.272-5.12-28.16-14.848-5.888-9.728-5.888-22.016 0-31.744 5.888-9.728 16.896-15.616 28.16-14.848h37.12v-88.832H366.08c-11.52 0.768-22.272-5.12-28.16-14.848-5.888-9.728-5.888-22.016 0-31.744 5.888-9.984 16.64-15.616 28.16-14.848z m118.272 150.016h69.376v-88.832h-69.376v88.832z m193.28-280.832l-81.664 81.664c-7.68 8.448-19.2 12.288-30.464 9.472-11.008-2.816-19.712-11.52-22.528-22.528-2.816-11.008 0.768-22.784 9.472-30.464l81.664-81.664c12.032-12.032 31.488-12.032 43.52 0 5.888 5.888 8.96 13.568 8.96 21.76 0.256 8.192-3.072 15.872-8.96 21.76zM318.976 531.456c-5.632 5.888-13.568 8.96-21.76 8.96s-15.872-3.328-21.76-8.96l-153.6-153.6c-11.008-12.288-10.24-30.72 1.28-42.24s30.208-12.032 42.24-1.28L217.6 386.56v-323.328c-0.768-11.52 5.12-22.272 14.848-28.16 9.728-5.888 22.016-5.888 31.744 0 9.728 5.888 15.616 16.896 14.848 28.16v381.44 1.28l-0.256 1.792 39.936 39.936c5.888 5.632 9.216 13.568 9.216 21.76 0 8.448-3.072 16.128-8.96 22.016z m128.768-332.8c-8.192 0-15.872-3.328-21.76-8.96l-81.664-81.664c-8.448-7.68-12.032-19.2-9.472-30.464 2.816-11.008 11.52-19.712 22.528-22.528 11.008-2.816 22.784 0.768 30.464 9.472l81.664 81.664c8.704 8.704 11.52 22.016 6.656 33.536-4.608 11.52-15.872 18.944-28.416 18.944z m0 0"  horiz-adv-x="1024" />

    
    <glyph glyph-name="gongyingshangweihu1" unicode="&#58983;" d="M389.76 566.592c0-72 38.848-138.432 101.888-174.464a205.568 205.568 0 0 1 203.648 0 201.024 201.024 0 0 1 101.76 174.464C797.12 677.76 705.92 768 593.536 768 480.96 768 389.76 677.76 389.76 566.592M145.472 345.024c0 11.072 8.128 20.16 18.24 20.16h127.744c9.536-0.832 16.896-9.6 16.896-20.16s-7.36-19.328-16.896-20.16H163.712c-10.112 0-18.24 9.024-18.24 20.16m18.176 100.736H291.2c9.6-0.64 17.28-9.472 17.28-20.16 0-10.752-7.68-19.584-17.28-20.16H163.648c-10.048 0-18.176 9.024-18.176 20.16 0 11.136 8.128 20.16 18.176 20.16m226.176-93.568V499.072c0 16.32-16.64 27.2-33.152 27.2H97.152c-16.576 0-33.152-16.32-33.152-32.64v-491.008h149.12c-39.04 162.048 51.392 271.232 176.64 349.568M745.344 315.968l-76.8-155.072-27.52 67.2s0 10.368 16.512 36.224c10.944 25.856 16.512 36.16-10.944 51.648-27.52 10.368-60.48 5.248-71.36-20.608-11.008-25.856 16.448-36.224 16.448-51.712 0-15.552-16.448-82.752-16.448-82.752s0-20.672-27.52 31.04C520.32 243.648 492.8 321.28 492.8 321.28c-148.224-46.592-225.152-139.584-225.152-274.048 0-51.648 675.456-77.504 691.904 31.04 10.944 103.36-192.192 289.472-214.208 237.76"  horiz-adv-x="1024" />

    
    <glyph glyph-name="duima" unicode="&#59046;" d="M261.418 634.581h115.654V518.93H261.418V634.581zM261.418 249.07h115.654v-115.651H261.418v115.65zM158.617 679.556v-263.43h321.257V737.384h-263.43c-32.127 0-57.827-25.7-57.827-57.827z m263.43-205.602H216.444V679.556h205.603v-205.602zM158.617 88.444c0-32.127 25.7-57.827 57.827-57.827h263.43V351.872H158.617v-263.428z m57.827 205.602h205.603v-205.602H216.444V294.046zM807.556 679.557v-115.653h57.827V679.557c0 32.126-25.7 57.826-57.827 57.826h-57.827v-57.826h57.827zM544.126 416.127V621.73h57.827v-205.604h-57.827zM627.652 563.905v-64.254h64.252v64.254h57.825v57.826h-57.825V737.383h-64.252v-173.478zM749.729 416.127v57.825h115.654v-57.825H749.729zM749.729 499.651v57.827h57.827v-57.827h-57.827zM627.652 416.127v57.825h57.827v-57.825h-57.827zM544.126 679.557v57.826h57.827v-57.826h-57.827zM699.827 346.94c-85.986 0-155.699-69.702-155.699-155.698 0-85.994 69.713-155.697 155.699-155.697 85.988 0 155.699 69.703 155.699 155.697 0 85.996-69.711 155.699-155.7 155.699zM648.03 173.193c1.833-1.73 8.302-9.863 13.089-9.863 4.91 0 30.483 27.291 41.546 39.533l52.219 60.417c1.723 1.831 3.07 3.008 5.786 3.09 2.716 0.088 6.284-0.941 8.116-2.66l16.84-16.623a9.852 9.852 0 0 0 3.1-6.863 9.822 9.822 0 0 0-2.663-7.043l-95.018-100.418 0.138-0.128-20.209-21.508a9.805 9.805 0 0 0-6.863-3.088 9.768 9.768 0 0 0-7.045 2.655l-57.36 53.903a9.772 9.772 0 0 0-3.091 6.86 9.823 9.823 0 0 0 2.672 7.05l13.467 14.337a9.845 9.845 0 0 0 13.902 0.434l21.374-20.085z"  horiz-adv-x="1024" />

    
    <glyph glyph-name="jigouweihu" unicode="&#58889;" d="M241.411397-8.626594a50.893573 50.893573 0 0 0-34.106687 14.388759l-74.874838 76.20713a47.696071 47.696071 0 0 0 0 68.213375 48.761905 48.761905 0 0 0 68.213375 0l75.940672-75.940672a47.696071 47.696071 0 0 0 0-68.213375 50.893573 50.893573 0 0 0-35.172522-14.655217z m-75.940671 130.564663a5.862087 5.862087 0 0 1-3.996877-1.865209 5.062711 5.062711 0 0 1 0-7.993755l75.940671-75.940671a8.79313 8.79313 0 0 1 4.263336-1.86521 10.125423 10.125423 0 0 1 3.730419 1.86521 5.062711 5.062711 0 0 1 0 7.993754l-76.20713 75.940672a5.862087 5.862087 0 0 1-3.730419 1.865209zM239.013271-128a128.699454 128.699454 0 0 0-91.128806 38.90294L38.90294 19.351548a129.498829 129.498829 0 0 0 0 184.922196l293.104346 293.104346-17.586261 17.586261a48.228988 48.228988 0 0 0 68.213375 68.213375l32.507937-32.507937 58.087952-55.956284 138.824876 138.824876 57.022118 133.229248L798.576112 896l225.956805-222.759303-126.834244-126.834244-135.893833-57.022118-144.953422-142.555295 90.862347-90.862347a47.696071 47.696071 0 0 0 0-68.213375 47.696071 47.696071 0 0 0-68.213375 0l-17.58626 17.58626-293.104346-294.436638a128.699454 128.699454 0 0 0-89.796513-38.90294z m108.715066 681.867291a5.595628 5.595628 0 0 1-3.996877-1.865209 5.062711 5.062711 0 0 1 0-7.993755L391.427531 496.312256 69.01275 174.430393a86.86547 86.86547 0 0 1 0-124.702576l108.715067-108.715067a85.799636 85.799636 0 0 1 122.037991 0l321.881863 324.812907 47.696071-47.696071a9.059589 9.059589 0 0 1 4.263336-1.865209 10.125423 10.125423 0 0 1 3.730419 1.865209 5.062711 5.062711 0 0 1 0 7.993755l-121.238616 120.972157 181.191777 178.260734 135.627375 57.022118 90.595888 90.595889-164.937809 164.138433-93.526932-94.859224-57.022118-133.229248-175.32969-175.329691-121.238616 118.307573a5.595628 5.595628 0 0 1-3.996877 1.865209z"  horiz-adv-x="1024" />

    
    <glyph glyph-name="user-lock" unicode="&#58971;" d="M966.17 167.97400000000005h-6.877v43.982a137.592 137.592 0 0 1-247.103 83.359 35.889 35.889 0 0 1-5.59 4.39 457.188 457.188 0 0 1-93.14 45.425l-1.129 0.443a296.432 296.432 0 0 1 144.07 254.11C756.4 763.025 623.469 896 460.083 896S163.765 763.0260000000001 163.765 599.682a296.432 296.432 0 0 1 143.898-254.009A460.233 460.233 0 0 1 0.622-87.99300000000005a35.746 35.746 0 0 1 71.491 0c0 200.304 152.592 365.635 347.649 385.867l1.13 0.115c2.659 0.271 5.318 0.5 7.992 0.715l1.973 0.157c2.474 0.186 4.947 0.329 7.421 0.472l2.374 0.143c2.53 0.128 5.075 0.214 7.62 0.286l2.088 0.071q4.833 0.115 9.694 0.129h7.478l3.575-0.1 3.732-0.115 4.518-0.2 2.517-0.128 5.376-0.33 1.1-0.085a386.168 386.168 0 0 0 179.873-59.51 35.56 35.56 0 0 1 17.573-5.547 138.064 138.064 0 0 1-1.716-21.991v-43.982h-6.878a57.193 57.193 0 0 1-57.193-57.193v-181.588A57.193 57.193 0 0 1 677.202-128h288.969a57.193 57.193 0 0 1 57.193 57.193V110.78099999999995a57.193 57.193 0 0 1-57.193 57.193zM235.258 599.682c0 123.967 100.86 224.827 224.826 224.827s224.826-100.86 224.826-224.827-100.917-224.826-224.826-224.826-224.826 100.86-224.826 224.826z m506.016-387.726a80.456 80.456 0 0 0 160.913 0v-43.982H741.273zM966.17-70.793H677.13V110.79600000000005h289.04v-181.589zM768.297 48.583999999999946h107.365v-57.193H768.297z"  horiz-adv-x="1024" />

    
    <glyph glyph-name="yaowan" unicode="&#58957;" d="M259.584 346.624c9.216 9.216 9.216 24.064 0 33.28s-24.064 9.216-33.28 0c-77.312-77.312-77.312-203.776 0-281.088 9.216-9.216 24.064-9.216 33.28 0 9.216 9.216 9.216 24.064 0 33.28-58.88 58.88-58.88 155.648 0 214.528zM863.232 735.232c-111.616 111.616-293.376 111.616-404.992 0l-50.688-50.688-44.032-44.032-202.752-202.752c-111.616-111.616-111.616-293.376 0-404.992s293.376-111.616 404.992 0l202.752 202.752 44.032 44.032 50.688 50.688c112.128 111.616 112.128 293.376 0 404.992zM532.48 65.536c-93.696-93.696-245.76-93.696-338.944 0s-93.696 245.76 0 338.944l179.712 179.712c19.456-79.36 59.904-155.136 121.856-217.088 61.952-61.952 137.216-102.912 217.088-121.856L532.48 65.536z m-4.096 334.848C465.408 463.872 427.008 542.208 413.184 624.128L491.52 702.464c93.696 93.696 245.76 93.696 338.944 0s93.696-245.76 0-338.944l-78.336-78.336c-81.92 13.824-160.256 52.224-223.744 115.2z"  horiz-adv-x="1024" />

    
    <glyph glyph-name="authority" unicode="&#58915;" d="M768 479.085714c43.885714 43.885714 43.885714 109.714286 0 153.6-43.885714 43.885714-117.028571 43.885714-160.914286 7.314286s-43.885714-109.714286 0-153.6 117.028571-51.2 160.914286-7.314286zM658.285714 530.285714c-14.628571 14.628571-14.628571 36.571429 0 51.2 14.628571 14.628571 36.571429 14.628571 51.2 0 14.628571-14.628571 14.628571-36.571429 0-51.2s-36.571429-14.628571-51.2 0z m-512-563.2c-14.628571-14.628571-36.571429-14.628571-51.2 0s-14.628571 36.571429 0 51.2l387.657143 387.657143-14.628571 21.942857c-58.514286 102.4-43.885714 226.742857 36.571428 314.514286 102.4 102.4 263.314286 102.4 358.4 0s102.4-263.314286 0-358.4c-80.457143-87.771429-204.8-102.4-307.2-43.885714l-21.942857 14.628571-160.914286-160.914286 80.457143-80.457142c14.628571-14.628571 36.571429-14.628571 51.2 0 14.628571 14.628571 14.628571 36.571429 0 51.2l-21.942857 29.257142 65.828572 65.828572c124.342857-58.514286 277.942857-36.571429 373.028571 65.828571 131.657143 131.657143 131.657143 336.457143 0 468.114286S585.142857 917.942857 453.485714 793.6c-95.085714-102.4-124.342857-248.685714-65.828571-373.028571L36.571429 69.48571400000003c-43.885714-43.885714-43.885714-109.714286 0-153.6 43.885714-43.885714 109.714286-43.885714 153.6 0l80.457142 80.457143-51.2 43.885714-73.142857-73.142857z m307.2 51.2l-131.657143 131.657143-51.2-58.514286 131.657143-131.657142c14.628571-14.628571 36.571429-14.628571 51.2 0 14.628571 21.942857 14.628571 43.885714 0 58.514285z"  horiz-adv-x="1024" />

    
    <glyph glyph-name="dingdan" unicode="&#59161;" d="M496 192H368c-17.6 0-32-14.4-32-32s14.4-32 32-32h128c17.6 0 32 14.4 32 32s-14.4 32-32 32z m160 160H368c-17.6 0-32-14.4-32-32s14.4-32 32-32h288c17.6 0 32 14.4 32 32s-14.4 32-32 32z m0 160H368c-17.6 0-32-14.4-32-32s14.4-32 32-32h288c17.6 0 32 14.4 32 32s-14.4 32-32 32zM720 752h-22.4c-12.8 36.8-48 64-89.6 64H416c-41.6 0-76.8-27.2-89.6-64H304c-88 0-160-72-160-160v-480c0-88 72-160 160-160h416c88 0 160 72 160 160V592c0 88-72 160-160 160z m-304 0h192c17.6 0 32-14.4 32-32s-14.4-32-32-32H416c-17.6 0-32 14.4-32 32s14.4 32 32 32z m400-640c0-52.8-43.2-96-96-96H304c-52.8 0-96 43.2-96 96V592c0 52.8 43.2 96 96 96h22.4c12.8-36.8 48-64 89.6-64h192c41.6 0 76.8 27.2 89.6 64H720c52.8 0 96-43.2 96-96v-480z"  horiz-adv-x="1024" />

    
    <glyph glyph-name="quanxian" unicode="&#58946;" d="M645.1 364.1C753.7 437.7 782 585.4 708.4 694S487.2 830.8 378.6 757.2 241.7 536 315.3 427.4c16.9-24.9 38.4-46.4 63.3-63.3C214.8 316.4 96.7 183.5 96.7 27v-59.2H334V27H156c0 160.9 153.9 292 345.7 296.4h20C577 322.2 631.5 310 682 287.3l-177.3-177-83.6 83.8-41.8-42 125.9-125.9 23.1 23.1L736 256.9c79.7-49.8 129.1-136.3 131.6-230.2H689.8v-58.9h237.5V27c0 156.5-118.1 289.4-282.2 337.1z m-133.1 19c-98.2 0-177.8 79.6-177.8 177.8 0 98.2 79.6 177.8 177.8 177.8 98.2 0 177.8-79.6 177.8-177.8S610.2 383.1 512 383.1z"  horiz-adv-x="1024" />

    
    <glyph glyph-name="yaopinguanli" unicode="&#59038;" d="M912 784a294.144 294.144 0 0 0 0-416l-384-384A293.312 293.312 0 0 0 320-102.144 294.144 294.144 0 0 0 112 400l384 384A293.312 293.312 0 0 0 704 870.144c75.264 0 150.592-28.736 208-86.144z m-45.248-370.752A228.736 228.736 0 0 1 934.144 576c0 61.44-23.936 119.296-67.392 162.752A228.736 228.736 0 0 1 704 806.144c-61.504 0-119.232-23.936-162.752-67.392L371.904 569.344l325.504-325.44 169.344 169.344z m-384-384l169.344 169.344-325.44 325.504-169.408-169.344A228.736 228.736 0 0 1 89.856 192c0-61.504 23.936-119.232 67.392-162.752A228.736 228.736 0 0 1 320-38.144c61.44 0 119.296 23.936 162.752 67.392z m101.76 664.576a169.216 169.216 0 0 0 238.912 0 31.936 31.936 0 0 0-22.592-54.656 32 32 0 0 0-22.656 9.408 105.024 105.024 0 0 1-148.352 0 32 32 0 0 0-45.248 45.248z"  horiz-adv-x="1024" />

    
    <glyph glyph-name="fapiao" unicode="&#59011;" d="M188.7 443.1h-64.2C55.8 443.1 0 498.9 0 567.6V718.9C0 787.5 55.8 843.4 124.5 843.4h775.3c68.7 0 124.5-55.8 124.5-124.5v-139.2c0-68.7-55.8-124.5-124.5-124.5H782.2v64.3h117.6c33.2 0 60.3 27 60.3 60.3V718.9c0 33.2-27 60.3-60.3 60.3H124.5c-33.2 0-60.3-27-60.3-60.3v-151.2c0-33.2 27-60.3 60.3-60.3h64.2v-64.3zM210.1-74.1c-3.7 0-7.4 0.6-11.1 2-12.7 4.6-21 16.7-21 30.1V643.2c0 17.8 14.4 32.1 32.1 32.1h604.2c17.8 0 32.1-14.4 32.1-32.1v-148c0-17.8-14.4-32.1-32.1-32.1-17.8 0-32.1 14.4-32.1 32.1V611.1h-540v-565.9l28.7 33.7c5.8 6.9 14.4 10.9 23.4 11.2s17.8-3.2 24.1-9.7l76.5-78.6 97.3 78.5c12.4 10 30.4 9.4 42.2-1.6l82.1-77 89.7 77.9c13.3 11.5 33.3 10.2 45-2.8l30.8-34.5V312.1c0 17.8 14.4 32.1 32.1 32.1 17.8 0 32.1-14.4 32.1-32.1V-42c0-13.4-8.2-25.3-20.7-30s-26.5-1.3-35.5 8.6l-65.9 73.7-87.7-76.1c-12.4-10.8-31-10.4-43.1 0.8l-82.9 77.7-98.3-79.3c-13-10.4-31.6-9.3-43.2 2.6l-72.3 74.3-62.5-73.2c-5.8-7.3-14.8-11.2-24-11.2zM865.6 613.4h-707c-17.8 0-32.1 14.4-32.1 32.1 0 17.8 14.4 32.1 32.1 32.1h707c17.8 0 32.1-14.4 32.1-32.1 0.1-17.7-14.3-32.1-32.1-32.1z m-202.8-231H361.5c-17.7 0-32.1 14.5-32.1 32.1 0 17.7 14.5 32.1 32.1 32.1h301.3c17.7 0 32.1-14.5 32.1-32.1s-14.4-32.1-32.1-32.1z m0-176.9H361.5c-17.7 0-32.1 14.5-32.1 32.1 0 17.7 14.5 32.1 32.1 32.1h301.3c17.7 0 32.1-14.5 32.1-32.1s-14.4-32.1-32.1-32.1z"  horiz-adv-x="1024" />

    
    <glyph glyph-name="icon-EPClianhetitoubiaohezuoxieyi" unicode="&#59090;" d="M166.049684-110.825544a92.393544 92.393544 0 0 0-92.285754 92.285755v808.421052c0 51.918596 42.397193 94.315789 94.315789 94.31579h687.157895c51.900632 0 94.315789-42.397193 94.31579-94.31579v-656.833123l-0.03593-120.275087c4.527158-61.134596-40.151579-115.460491-100.908913-123.275228-6.467368-2.425263-14.156351-2.389333-21.647719-0.323369H166.049684z m704.008983 878.484211c0 34.133333-11.29993 45.12786-45.145825 45.127859H192.332351c-28.025263 0-45.145825-12.000561-45.145825-45.127859v-761.945825c0-28.70793 21.899228-45.12786 45.145825-45.12786H826.924912c22.330386 0 43.115789 15.809123 43.11579 43.11579v119.592421c-0.03593 3.054035-0.03593 6.449404-0.017965 10.24v5.15593l-0.017965 3.862456c0 2.11986 0 4.203789 0.03593 6.21586V767.658667zM737.998596 748.166737H246.586386a45.774596 45.774596 0 0 1-45.738667-45.720702 45.774596 45.774596 0 0 1 45.738667-45.720702h487.531789a45.774596 45.774596 0 0 1 45.720702 45.720702 45.774596 45.774596 0 0 1-45.720702 45.720702h3.916351zM459.955649 623.921404H246.568421a45.774596 45.774596 0 0 1-45.738667-45.720702 45.774596 45.774596 0 0 1 45.738667-45.738667h213.387228a45.774596 45.774596 0 0 1 45.720702 45.738667 45.774596 45.774596 0 0 1-45.720702 45.720702zM520.174035 458.518456c118.891789 0 215.273544-96.399719 215.273544-215.273544 0-118.891789-96.381754-215.273544-215.273544-215.273544s-215.273544 96.381754-215.273544 215.273544 96.381754 215.273544 215.273544 215.273544z m0-373.077333c87.022035 0 157.803789 70.781754 157.80379 157.803789 0 87.00407-70.781754 157.785825-157.80379 157.785825-87.00407 0-157.785825-70.781754-157.785824-157.785825s70.781754-157.803789 157.785824-157.803789zM555.780491 280.683789l-35.606456 72.147088-35.606456-72.147088-79.620491-11.569403 57.613473-56.158316-13.599438-79.297123 71.212912 37.438878 71.212912-37.438878-13.599438 79.297123 57.613473 56.158316z"  horiz-adv-x="1024" />

    
    <glyph glyph-name="hetongchakan" unicode="&#58994;" d="M896 853.333333H128a42.666667 42.666667 0 0 1-42.666667-42.666666v-810.666667a42.666667 42.666667 0 0 1 42.666667-42.666667h298.666667a42.666667 42.666667 0 0 1 0 85.333334H170.666667V768h682.666666v-341.333333a42.666667 42.666667 0 0 1 85.333334 0V810.666667a42.666667 42.666667 0 0 1-42.666667 42.666666zM298.666667 597.333333h426.666666a42.666667 42.666667 0 0 1 0 85.333334H298.666667a42.666667 42.666667 0 0 1 0-85.333334zM512 426.666667a42.666667 42.666667 0 0 1-42.666667 42.666666H298.666667a42.666667 42.666667 0 0 1 0-85.333333h170.666666a42.666667 42.666667 0 0 1 42.666667 42.666667zM298.666667 256a42.666667 42.666667 0 0 1 0-85.333333h42.666666a42.666667 42.666667 0 0 1 0 85.333333zM857.6 49.066667a216.746667 216.746667 0 1 1-62.293333-58.88l68.266666-68.266667a42.666667 42.666667 0 0 1 60.586667 0 42.666667 42.666667 0 0 1 0 60.586667zM554.666667 170.666667a128 128 0 1 0 128-128 128 128 0 0 0-128 128z"  horiz-adv-x="1024" />

    
    <glyph glyph-name="peisongzhongxin" unicode="&#58891;" d="M181.8 391.2c-3-4.5-4.7-9.8-4.7-15.3v-41.7c0-15.3 12.4-27.8 27.8-27.8H316c15.3 0 27.8 12.4 27.8 27.8V500.9c0 15.3-12.4 27.8-27.8 27.8h-27.8c-9.3 0-17.9-4.7-23.1-12.5l-83.3-125z m23.1-15.3l83.3 125H316v-166.7H204.9v41.7zM79.9 408.1C70.8 394.4 66 378.4 66 362v-166.7c0-46 37.3-83.3 83.3-83.3H181c10.3-38 40-67.7 78.1-78.1 59.2-16.1 120.3 18.9 136.4 78.1h146.7c10.3-38 40-67.7 78.1-78.1 59.2-16.1 120.3 18.9 136.4 78.1h31.7c46 0 83.3 37.3 83.3 83.3v83.3c46 0 83.3 37.3 83.3 83.3V667.6c0 46-37.3 83.3-83.3 83.3H454.9c-46 0-83.3-37.3-83.3-83.3V612H260.5c-27.9 0-54-14-69.4-37.2L79.9 408.1z m375-73.9c-15.3 0-27.8 12.4-27.8 27.8V667.6c0 15.3 12.4 27.8 27.8 27.8h416.7c15.3 0 27.8-12.4 27.8-27.8V362c0-15.3-12.4-27.8-27.8-27.8H454.9z m138.9-194.4c0 30.7 24.9 55.6 55.6 55.6 30.7 0 55.6-24.9 55.6-55.6 0-30.7-24.9-55.6-55.6-55.6-30.7 0-55.6 24.9-55.6 55.6z m-361.1 0c0 30.7 24.9 55.6 55.6 55.6s55.6-24.9 55.6-55.6c0-30.7-24.9-55.6-55.6-55.6s-55.6 24.9-55.6 55.6zM121.6 362c0 5.4 1.7 10.8 4.7 15.3L237.4 544c5.1 7.8 13.8 12.5 23.1 12.5h111.1V362c0-46 37.3-83.3 83.3-83.3H816v-83.3c0-15.3-12.4-27.8-27.8-27.8h-31.7c-10.3 38-40 67.7-78.1 78.1-59.2 16.1-120.3-18.9-136.4-78.1H395.5c-10.3 38-40 67.7-78.1 78.1-59.2 16.1-120.3-18.9-136.4-78.1h-31.7c-15.3 0-27.8 12.4-27.8 27.8V362z"  horiz-adv-x="1024" />

    
    <glyph glyph-name="jiaose" unicode="&#59440;" d="M292.48 600.32A1786.88 1786.88 0 0 1 512 586.88a1786.24 1786.24 0 0 1 219.52 13.44 49.92 49.92 0 0 1 33.28 19.2 45.44 45.44 0 0 1 8.96 34.56L768 679.04a48.64 48.64 0 0 1-53.76 40.96l-46.72-4.48-12.8 94.72A26.24 26.24 0 0 1 626.56 832a1030.4 1030.4 0 0 0-229.12 0 26.24 26.24 0 0 1-29.44-21.76l-12.8-94.72-48 4.48a48 48 0 0 1-51.2-40.96l-3.2-24.96a46.08 46.08 0 0 1 8.96-35.2 49.28 49.28 0 0 1 30.72-18.56z m106.24 199.04a1056 1056 0 0 1 226.56 0L640 713.6c-41.6 0-83.2-5.12-128-5.12-41.6 0-83.2 0-128 5.12z m-113.28-128a16.64 16.64 0 0 0 16 13.44l47.36-4.48h16.64c48-3.84 96-6.4 144.64-6.4s96.64 0 144.64 6.4h16l48 4.48a16.64 16.64 0 0 0 18.56-13.44l3.2-24.96a14.08 14.08 0 0 0 0-10.88 17.92 17.92 0 0 0-12.16-6.4 1761.28 1761.28 0 0 0-430.72 0 17.28 17.28 0 0 0-12.8 10.88 14.72 14.72 0 0 0 0 10.88zM764.16 448H259.84a80 80 0 0 1-79.36-79.36v-397.44a16 16 0 0 1 16-16h631.68a16 16 0 0 1 16 16V368.64A80 80 0 0 1 764.16 448z m-296.32-200.32L327.68 330.24l50.56 72.32L424.32 320z m44.16-12.8L407.04 416.64h209.92z m138.88 167.68L704 330.24l-142.72-82.56z m161.28-415.36H212.48v384a48 48 0 0 0 48 48h88.32l-57.6-82.56a16 16 0 0 1 0-12.8 16 16 0 0 1 7.68-10.24l204.8-121.6A16.64 16.64 0 0 1 512 192a16.64 16.64 0 0 1 8.32 0l207.36 122.24a16 16 0 0 1 12.16 5.76 16 16 0 0 1 0 12.8l-57.6 82.56h83.84a48 48 0 0 0 48-48z"  horiz-adv-x="1024" />

    
    <glyph glyph-name="hetongguanli" unicode="&#58901;" d="M1055.623239 95.536769c-11.562247-1.087049-46.7431-8.597568-55.983015-28.707971-8.004632-17.491604 5.28701-42.197259 17.837483-59.787686l7.806987-10.9199-76.587531-80.540436-11.611658 8.696391c-10.524609 7.856398-44.766647 28.164447-64.234704 18.924532-15.663385-7.461108-19.764524-34.29145-20.802162-55.488902l-0.592935-15.712797h-120.958889l-0.592935 15.712797c-0.839992 21.197452-4.941131 48.027794-20.802162 55.488902-19.468056 9.239915-53.759506-11.068134-64.234704-18.924532l-11.661069-8.745802-76.389886 80.441613 7.806987 10.9199c12.550473 17.590427 25.842115 42.246671 17.837483 59.738274-9.141092 20.060992-43.580776 27.5221-56.032426 28.757383l-14.823393 1.334105v109.100174l14.823393 1.383517c12.45165 1.185871 46.841922 8.646979 56.032426 28.757383 8.004632 17.491604-5.28701 42.147848-17.837483 59.738274l-7.806987 10.9199L633.057711 387.063501l11.661069-8.69639c10.524609-7.856398 44.816059-28.164447 64.234704-18.924532 15.712797 7.461108 19.764524 34.29145 20.802162 55.488901l0.642347 15.663386h121.156533l0.592936-15.663386c0.839992-21.197452 4.941131-48.027794 20.802162-55.488901 19.764524-9.239915 53.808917 11.068134 64.234703 18.924532L948.697163 387.063501l76.389886-80.441613-7.806987-10.9199c-12.550473-17.590427-25.842115-42.296082-17.788072-59.787686 9.239915-20.110403 44.47018-27.670334 55.983015-28.707971l14.823393-1.284694v-109.100174z m-33.500869 60.973557v18.924532c-18.825709 4.002316-50.844239 14.823393-63.542945 42.345493-9.882262 21.296275-5.534067 46.792511 12.550473 75.945185l-36.218491 38.145531c-17.639838-10.722254-51.684231-26.78093-80.194557-13.291642-20.060992 9.486972-32.067941 30.882069-35.872611 63.691179h-55.735959c-3.75526-32.80911-15.811619-54.352442-35.872611-63.691179-28.510326-13.439876-62.554719 2.618799-80.194557 13.291642l-36.218491-38.145531c18.08454-29.152673 22.333912-54.648909 12.550473-75.945185-12.698707-27.670334-44.47018-38.343177-63.542945-42.345493v-48.225439c18.825709-4.002316 50.844239-14.823393 63.542945-42.345493 9.882262-21.296275 5.583478-46.792511-12.501062-75.945184l36.218491-38.145532c17.639838 10.722254 51.733642 26.78093 80.194557 13.291642 20.060992-9.486972 32.067941-30.882069 35.872612-63.691179h55.686547c3.75526 32.80911 15.811619 54.352442 35.872611 63.691179 28.510326 13.439876 62.554719-2.618799 80.194557-13.291642l36.218491 38.145532c-18.08454 29.152673-22.333912 54.648909-12.550473 75.945184 12.698707 27.670334 44.47018 38.343177 63.542945 42.345493zM791.223316 11.537541a139.636364 139.636364 0 1 0 139.636364 139.636364A139.636364 139.636364 0 0 0 791.223316 11.537541z m0 232.727273A93.090909 93.090909 0 1 1 884.462459 151.322139a93.090909 93.090909 0 0 1-93.239143 93.041497z m-372.314225-139.48813H139.636364v46.545455h280.013897zM139.636364 337.652191h279.272727l0.790581-46.545455H139.636364z m0 372.363636h698.132407v-46.7431H139.636364z m698.132407-232.727273H139.636364v46.34781h698.132407z m93.090909 372.165991H46.545455v-884.462459h418.859679v-46.545454H0V896h977.405134v-418.909091h-46.545454z"  horiz-adv-x="1070" />

    
    <glyph glyph-name="kehuweihu" unicode="&#58885;" d="M1052.16 202.24c-13.312 0-25.088-7.68-28.672-18.944v-210.432h-918.528V795.136h420.864c11.264 3.584 18.944 15.36 18.944 28.672s-7.68 25.088-18.944 28.672h-420.864c-32.768 0-57.344-25.088-57.344-57.344v-822.784c0-32.768 25.088-57.344 57.344-57.344H1023.488c32.768 0 57.344 25.088 57.344 57.344v210.432c-4.096 11.776-15.36 19.456-28.672 19.456z m-841.728 382.464h210.432c15.36 0 28.672 13.312 28.672 28.672 0 15.36-13.312 28.672-28.672 28.672h-210.432c-15.36 0-28.672-13.312-28.672-28.672 0-14.848 13.312-28.672 28.672-28.672z m0-248.32h210.432c15.36 0 28.672 13.312 28.672 28.672 0 15.36-13.312 28.672-28.672 28.672h-210.432c-15.36 0-28.672-13.312-28.672-28.672 0-15.36 13.312-28.672 28.672-28.672z m0-248.832h573.952c15.36 0 28.672 13.312 28.672 28.672 0 15.36-13.312 28.672-28.672 28.672h-573.952c-15.36 0-28.672-13.312-28.672-28.672s13.312-28.672 28.672-28.672z m870.4 181.76v2.048c-3.584 103.424-69.12 193.024-158.72 233.472 49.664 34.304 81.92 91.648 81.92 156.672C1004.032 766.464 918.016 852.48 813.056 852.48s-191.488-86.016-191.488-191.488c0-65.024 32.768-122.368 82.432-156.672-90.112-39.936-153.088-128-158.72-233.472v-11.264c3.584-11.264 15.36-18.944 28.672-18.944 13.312 0 25.088 7.68 28.672 18.944 0 116.736 93.696 210.432 210.432 210.432s210.432-93.696 210.432-210.432c3.584-11.264 15.36-18.944 28.672-18.944s25.088 7.68 28.672 18.944v9.728c0-2.048 0 0 0 0zM813.056 527.36c-74.752 0-134.144 59.392-134.144 134.144s59.392 134.144 134.144 134.144S946.688 736.256 946.688 661.504 887.808 527.36 813.056 527.36z"  horiz-adv-x="1127" />

    
    <glyph glyph-name="huaban-" unicode="&#58985;" d="M930.048 684.0832V716.552192a32 32 0 1 1-64 0v-32.06144h-64v64.12288A96.198656 96.198656 0 0 1 706.048 844.8h-384a96.198656 96.198656 0 0 1-96-96.186368v-64.12288h-64V716.552192a32 32 0 1 1-64 0v-32.468992A100.038656 100.038656 0 0 1 2.048 584.2944v-637.21472A32.012288 32.012288 0 0 1 34.048-84.992h128a32.06144 32.06144 0 0 1 0 64.12288H66.048V584.2944a36.08576 36.08576 0 0 0 35.999744 36.069376h824.000512A36.08576 36.08576 0 0 0 962.048 584.2944v-605.16352H354.048a32.06144 32.06144 0 0 1 0-64.12288h640A32.012288 32.012288 0 0 1 1026.048-52.92032V584.2944a100.038656 100.038656 0 0 1-96 99.7888z m-192 0.4096h-448v64.12288A32.0512 32.0512 0 0 0 322.048 780.67712h384a32.0512 32.0512 0 0 0 32-32.063488v-64.12288zM418.048 203.5712v-96.19456a32.008192 32.008192 0 0 1 32-32.0512h128a32.008192 32.008192 0 0 1 32 32.0512V203.5712h96a32.008192 32.008192 0 0 1 32 32.0512v128.24576a32.012288 32.012288 0 0 1-32 32.07168h-96v96.180224a32.012288 32.012288 0 0 1-32 32.06144h-128a32.012288 32.012288 0 0 1-32-32.06144v-96.180224H322.048a32.012288 32.012288 0 0 1-32-32.07168v-128.24576a32.008192 32.008192 0 0 1 32-32.0512h96z m-64 128.24576h96a32.008192 32.008192 0 0 1 32 32.0512v96.190464h64v-96.190464a32.008192 32.008192 0 0 1 32-32.0512h96v-64.12288H578.048a32.026624 32.026624 0 0 1-32-32.07168v-96.17408h-64v96.17408a32.026624 32.026624 0 0 1-32 32.07168h-96v64.12288z"  horiz-adv-x="1026" />

    
    <glyph glyph-name="fenghuangxiangmutubiao_quanxian" unicode="&#58989;" d="M852.48 164.69333300000005h-238.933333c-18.773333 0-34.133333 15.36-34.133334 34.133334s15.36 34.133333 34.133334 34.133333h238.933333c18.773333 0 34.133333-15.36 34.133333-34.133333s-15.36-34.133333-34.133333-34.133334zM607.146667 165.54666699999996c-26.88 5.546667-36.693333 38.826667-17.92 58.453333l62.72 64.426667c8.533333 8.533333 20.48 12.373333 32.426666 9.813333 26.88-5.546667 36.693333-38.826667 17.92-58.453333l-62.72-64.426667c-8.533333-8.533333-20.906667-12.373333-32.426666-9.813333zM613.546667 113.493333h238.933333c18.773333 0 34.133333-15.36 34.133333-34.133333s-15.36-34.133333-34.133333-34.133333h-238.933333c-18.773333 0-34.133333 15.36-34.133334 34.133333s15.36 34.133333 34.133334 34.133333zM858.88 112.63999999999999c26.88-5.546667 36.693333-38.826667 17.92-58.453333l-62.72-64.426667c-8.533333-8.533333-20.48-12.373333-32.426667-9.813333-26.88 5.546667-36.693333 38.826667-17.92 58.453333l62.72 64.426667c8.533333 8.533333 20.906667 12.373333 32.426667 9.813333zM511.146667 810.666667c-136.533333 0-247.466667-110.933333-247.466667-247.466667s110.933333-247.466667 247.466667-247.466667 247.466667 110.933333 247.466666 247.466667-110.506667 247.466667-247.466666 247.466667z m0-426.666667c-98.986667 0-179.2 80.213333-179.2 179.2s80.213333 179.2 179.2 179.2 179.2-80.213333 179.2-179.2-80.213333-179.2-179.2-179.2zM175.786667-20.480000000000018c16.64 0 29.866667 13.653333 29.866666 30.293333v0.426667c0 168.533333 136.96 305.493333 305.493334 305.493333v68.266667c-206.506667 0-373.76-167.253333-373.76-373.76v-1.28c0-16.213333 13.653333-29.44 29.866666-29.44h8.533334z"  horiz-adv-x="1024" />

    
    <glyph glyph-name="zhanghaoguanli" unicode="&#58923;" d="M638.2 357c-113.2 0-205.3 92.2-205.3 205.5S524.9 768 638.2 768s205.3-92.2 205.3-205.5S751.4 357 638.2 357z m0 361c-85.7 0-155.3-69.8-155.3-155.5S552.6 407 638.2 407s155.3 69.8 155.3 155.5S723.8 718 638.2 718zM316.3 1.8h-50c0 54.4 9.7 107.2 28.9 156.9 18.6 48.2 45.2 91.4 79.2 128.6 34.1 37.4 73.9 66.7 118.2 87.3 46.1 21.4 95 32.2 145.5 32.2v-50c-85.5 0-166.1-36.6-226.8-103.2-61.2-67.1-95-156.6-95-251.8z m96.9 357.3c-39.6 8.1-75.7 29.9-101.6 61.2-26.2 31.8-40.7 72.1-40.7 113.4 0 41.3 14.4 81.6 40.7 113.4 25.9 31.4 61.9 53.1 101.5 61.2l10-49C364 647.2 321 594.4 321 533.7c0-60.7 43-113.5 102.3-125.6l-10.1-49z m10.1 300.2l-10 49c11.7 2.4 23.8 3.6 35.9 3.6v-50c-8.8 0-17.5-0.8-25.9-2.6zM179.7 57.8h-50c0 93.9 28.1 180.9 79.1 245 26.3 33 57.7 58.9 93.3 76.8C339.5 398.5 380.6 408 424 408v-50c-35.6 0-69-7.8-99.4-23.1-29.1-14.7-54.9-36-76.7-63.3-44-55.2-68.2-131.2-68.2-213.8zM610.1 202h200v-50h-200zM525.1 52h370v-50h-370z"  horiz-adv-x="1024" />

    
    <glyph glyph-name="yaowan1" unicode="&#59481;" d="M313.469388-35.004082c-56.42449 0-113.371429 21.420408-156.212245 64.783674-41.795918 41.795918-64.261224 97.17551-64.261225 156.212245 0 59.036735 22.987755 114.416327 64.261225 156.212245l396.016326 396.016326c86.204082 86.204082 226.220408 86.204082 312.42449 0s86.204082-226.220408 0-312.42449l-396.016326-396.016326c-43.363265-43.363265-99.787755-64.783673-156.212245-64.783674zM708.963265 760.163265c-45.97551 0-91.95102-17.240816-126.432653-52.244898l-396.016326-396.016326c-33.436735-33.436735-52.244898-78.889796-52.244898-126.432653 0-48.065306 18.285714-92.995918 52.244898-126.432653 70.008163-70.008163 183.379592-70.008163 253.387755 0L835.918367 454.530612c70.008163 70.008163 70.008163 183.379592 0 253.387755-35.004082 35.004082-80.979592 52.244898-126.955102 52.244898zM171.885714 327.053061zM652.538776 212.636735L340.114286 525.061224l212.636734 212.636735c86.204082 86.204082 226.220408 86.204082 312.42449 0s86.204082-226.220408 0-312.42449l-212.636734-212.636734zM399.15102 525.061224l253.387756-253.387755 182.857142 182.857143c70.008163 70.008163 70.008163 183.379592 0 253.387755-70.008163 70.008163-183.379592 70.008163-253.387755 0l-182.857143-182.857143zM626.416327 596.114286c-5.22449 0-10.44898 2.089796-14.628572 6.269387l-79.934694 79.934694c-8.359184 8.359184-8.359184 21.420408 0 29.779592 8.359184 8.359184 21.420408 8.359184 29.779592 0l79.934694-79.934694c8.359184-8.359184 8.359184-21.420408 0-29.779592-4.702041-4.179592-9.926531-6.269388-15.15102-6.269387zM545.959184 515.657143c-5.22449 0-10.44898 2.089796-14.628572 6.269388L451.395918 601.861224c-8.359184 8.359184-8.359184 21.420408 0 29.779592 8.359184 8.359184 21.420408 8.359184 29.779592 0l79.934694-79.934694c8.359184-8.359184 8.359184-21.420408 0-29.779591-4.179592-4.179592-9.926531-6.269388-15.15102-6.269388z"  horiz-adv-x="1024" />

    
    <glyph glyph-name="yaopin" unicode="&#59480;" d="M734.040816-33.959184h-449.306122c-45.97551 0-83.591837 37.616327-83.591837 83.591837V608.653061c0 45.97551 37.616327 83.591837 83.591837 83.591837h449.306122c45.97551 0 83.591837-37.616327 83.591837-83.591837v-559.020408c0-45.97551-37.616327-83.591837-83.591837-83.591837z m-449.306122 684.408164c-22.987755 0-41.795918-18.808163-41.795918-41.795919v-559.020408c0-22.987755 18.808163-41.795918 41.795918-41.795918h449.306122c22.987755 0 41.795918 18.808163 41.795919 41.795918V608.653061c0 22.987755-18.808163 41.795918-41.795919 41.795919h-449.306122zM734.040816-33.959184h-449.306122c-45.97551 0-83.591837 37.616327-83.591837 83.591837V530.285714h616.489796v-480.653061c0-45.97551-37.616327-83.591837-83.591837-83.591837z m-491.10204 522.44898v-438.857143c0-22.987755 18.808163-41.795918 41.795918-41.795918h449.306122c22.987755 0 41.795918 18.808163 41.795919 41.795918V488.489796h-532.897959zM689.632653 655.673469H334.367347c-28.734694 0-52.244898 23.510204-52.244898 52.244898v41.795919c0 28.734694 23.510204 52.244898 52.244898 52.244898h355.265306c28.734694 0 52.244898-23.510204 52.244898-52.244898v-41.795919c0-28.734694-23.510204-52.244898-52.244898-52.244898zM334.367347 760.163265c-5.746939 0-10.44898-4.702041-10.44898-10.448979v-41.795919c0-5.746939 4.702041-10.44898 10.44898-10.448979h355.265306c5.746939 0 10.44898 4.702041 10.44898 10.448979v41.795919c0 5.746939-4.702041 10.44898-10.44898 10.448979H334.367347zM613.877551 227.265306h-208.979592c-11.493878 0-20.897959 9.404082-20.897959 20.897959s9.404082 20.897959 20.897959 20.897959h208.979592c11.493878 0 20.897959-9.404082 20.897959-20.897959s-9.404082-20.897959-20.897959-20.897959zM509.387755 122.77551c-11.493878 0-20.897959 9.404082-20.897959 20.897959v208.979592c0 11.493878 9.404082 20.897959 20.897959 20.897959s20.897959-9.404082 20.897959-20.897959v-208.979592c0-11.493878-9.404082-20.897959-20.897959-20.897959z"  horiz-adv-x="1024" />

    


  </font>
</defs>
</svg>
